<?xml version="1.0" encoding="UTF-8"?>
<!DOCTYPE svg PUBLIC "-//W3C//DTD SVG 1.1//EN" "http://www.w3.org/Graphics/SVG/1.1/DTD/svg11.dtd">
<!-- Creator: CorelDRAW -->
<svg xmlns="http://www.w3.org/2000/svg" xml:space="preserve" width="210mm" height="297mm" version="1.1" style="shape-rendering:geometricPrecision; text-rendering:geometricPrecision; image-rendering:optimizeQuality; fill-rule:evenodd; clip-rule:evenodd"
viewBox="0 0 21000 29700"
 xmlns:xlink="http://www.w3.org/1999/xlink">
 <defs>
  <style type="text/css">
   <![CDATA[
    .str2 {stroke:black;stroke-width:10;stroke-miterlimit:3.864;stroke-opacity:0.501961}
    .str1 {stroke:black;stroke-width:50;stroke-miterlimit:22.9256}
    .str5 {stroke:#434242;stroke-width:10;stroke-miterlimit:22.9256}
    .str3 {stroke:black;stroke-width:10;stroke-miterlimit:3.864}
    .str0 {stroke:#000066;stroke-width:10;stroke-miterlimit:22.9256}
    .str6 {stroke:#2B2A29;stroke-width:7.62;stroke-miterlimit:22.9256}
    .str4 {stroke:black;stroke-width:7.62;stroke-miterlimit:22.9256}
    .fil2 {fill:none}
    .fil8 {fill:#D9DADA}
    .fil0 {fill:#A2D9F7}
    .fil1 {fill:white}
    .fil6 {fill:#FEFEFE;fill-rule:nonzero}
    .fil5 {fill:#D9DADA;fill-rule:nonzero}
    .fil7 {fill:#434242;fill-rule:nonzero}
    .fil4 {fill:black;fill-rule:nonzero}
    .fil3 {fill:#FEFEFE;fill-rule:nonzero;fill-opacity:0.501961}
   ]]>
  </style>
 </defs>
 <g id="Plan_x0020_1">
  <metadata id="CorelCorpID_0Corel-Layer"/>
  <rect class="fil0" x="1000" y="1000" width="19000" height="19419.12"/>
  <path class="fil1 str0" d="M20000 1000l0 19419.12 -17610.56 0 52.43 -70.3c16.28,-27.9 27.14,-61.37 15.5,-91.9 -7.14,-18.75 -52.66,-42.49 -19.07,-53.71 54.94,-18.34 70.74,-52.65 28.6,-105.04 -2.55,-3.18 7.68,-69.94 36.94,-40.58 32.39,32.49 40.83,-71.27 83.42,-7.16 32.21,48.47 86.45,-15.05 125.13,-22.68 6.37,-25.71 53.62,-37.97 53.62,-90.71 0,-45.78 -15.24,-99.26 -39.32,-138.46 -66.21,-107.74 -170.86,-167.33 -233.57,-280.49l-264.56 -318.68c-63.82,-76.86 -125.23,-166.74 -197.81,-232.75 -66.26,-60.27 -1.65,-43.56 28.6,-93.1 37.8,-61.89 20.95,-124.26 48.85,-182.62 19.87,-41.55 25.81,-91.66 34.56,-138.45 0,-122.64 -134.13,-179.75 -14.3,-286.46 59.34,-52.83 108.91,-227.88 87,-303.17 -21.57,-74.08 -1.95,-121.13 3.57,-193.36 32.71,-73.8 52.18,-26.5 91.76,-58.49 30.97,-25.04 39.97,-76.16 84.61,-84.74 56.97,-10.94 166.38,-118.54 195.43,-176.65 51.44,-102.88 37.68,-84.83 141.81,-126.52 28.61,-11.46 50.84,-52.57 66.74,-77.58l169.22 -266.17c86.98,-136.82 181.68,-143.34 300.3,-244.69 154.36,-82.19 175.61,-301.93 252.63,-445.2 40.25,-74.86 292.35,-206.29 375.38,-230.36 76.69,-22.24 127.82,-77.87 196.63,-83.55 48.54,-4.01 95.21,-84.28 120.36,-120.56 38.46,-50.52 114.59,-250.65 165.64,-250.65 68.1,0 168.57,-8.71 225.23,-46.55 43.27,-28.91 -32.18,51.33 -32.18,53.71 31.62,7.93 172.86,-26.34 175.18,-59.67 5.01,-71.95 107.56,-82.17 134.66,-162.33 33.31,-98.56 -12.48,-27.45 76.27,-27.45 26.9,0 45.24,-14.33 66.73,-14.33 78.6,0 220.76,79.61 299.11,31.04 55.53,-34.43 93.03,-25.07 157.3,-25.07l0 -3.58c-48.04,-9.54 -35.77,-34.38 -94.14,-23.87l-152.53 27.45c-53.6,9.65 -358.4,-53.91 -333.67,-97.87l73.88 -131.3c12.75,38.9 -12.43,109 38.14,132.49 71.5,33.23 -1.57,-77.6 23.83,-109.81 26,-32.95 55.52,-52.56 70.31,3.58 5.76,21.85 78.65,138.74 78.65,109.81 0,-33.47 -16.83,-45.03 -28.6,-71.61 -46.14,-104.21 113.11,-24.49 171.6,-60.88 140.03,-5.33 226.71,-111.44 277.66,-225.58 11.27,-25.24 71.85,-191.85 94.14,-137.26 14.13,34.59 11.92,77.04 11.92,115.77 0,47.38 68.15,-71.61 79.84,-82.35 45.61,-41.87 128.35,-110.8 157.3,-163.52 17.76,-32.36 38.15,51.55 78.65,-52.52 21.23,-84.87 7.25,-175.27 27.41,-256.62 3.68,-0.92 4.74,-1.5 8.35,1.19 0,9.4 3.52,49.95 13.1,51.33 1.81,3.62 7.16,3.63 8.35,8.35 83.5,20.7 102.19,-208.27 96.52,-256.62 -16.1,-137.32 -14.76,-269.4 22.64,-398.65 97.57,-138.51 109.98,-285.33 131.09,-444.02 15.46,-116.19 119.87,-93.68 183.52,-177.84 -39.1,-29.12 -210.93,169.25 -210.93,-14.32 0,-111.85 23.73,-215.05 135.85,-256.62 12.03,-4.45 47.59,-38.2 20.26,-38.2 -24.9,0 -171.89,76.02 -172.79,97.88 -2.51,61.07 -32.06,77.62 -42.9,132.48 -11.14,56.4 -12.44,184.65 -82.23,175.46 -15.32,-2.02 -105.85,-9.89 -110.83,-15.52 -22,-24.91 38.72,-182.74 48.86,-212.45 13.69,-72.08 37.38,-133.55 53.63,-202.91 9.69,-41.4 32.06,-82.67 36.94,-122.94 11.18,-92.26 11.64,-172.19 7.15,-267.36 -0.51,-10.97 -5.54,-72.81 -16.68,-72.81 0,20.96 -16.69,53.13 -16.69,83.55 0,51.64 6.95,101.35 -5.96,151.58 -23.3,140.76 -73.58,270.82 -101.29,411.79 -11.26,57.28 -53.65,57.21 -97.72,72.81 -43.39,15.35 -38.47,139.94 -29.48,177.21 -71.13,-2.6 -164.29,-8.19 -212.43,-60.24 -35.73,-43.81 -51.33,-55.86 -103.67,-66.84 -14.63,-3.07 -91.05,-50.81 -90.57,-56.1 1.99,-21.78 96.31,-131.77 120.36,-130.1 57.55,4.02 80.3,-44.51 77.46,-97.87 -3.29,-61.86 98.86,-82.06 119.17,-37.01 14.5,32.14 21.05,59.71 64.35,48.94 44.97,-11.18 46.79,-38.85 44.09,-77.58 -4.73,-67.96 92.95,-46.99 92.95,-77.58 -92.35,-31.12 -94.75,40.64 -125.13,105.03 -39.41,83.56 -68.41,-78.78 -122.74,-78.78 -36.67,0 -149.77,115.47 -144.19,81.17l27.41 -168.3c7.52,-46.25 56.78,-13.44 45.28,-58.48 -7.81,-30.63 11.5,-98.33 19.07,-128.91 10.97,-44.25 67.19,-11.84 97.71,-52.52 12.58,-16.78 81.4,-104.95 94.15,-109.81 14.42,-5.51 70.09,-9.99 75.07,-23.87 3.82,-10.67 0.78,-62.06 -8.34,-62.06 -24.36,73.51 -100.47,64.45 -171.6,64.45 0,18.44 70.67,74.18 -17.88,91.91 -96.58,19.33 -112.93,-19.75 -135.85,102.64 -16.84,89.88 -112.6,290.93 -163.26,367.63 -20.14,30.5 -162.01,185.22 -187.09,183.81 -59.02,-3.32 -27.96,81.63 -89.38,76.39 -53.69,22.12 -64.85,10.07 -91.76,65.64 -19.83,40.93 -31.09,52.53 -70.3,74.01 -46.94,25.73 -14.59,126.31 -4.77,164.71 57.42,224.43 -179.47,9.7 -239.53,-15.52 -54.75,-23 -156.21,-189.6 -203.78,-174.26 -73.19,23.59 -96.6,4.68 -144.19,-62.07 -75.48,-80.63 -616.63,-631.56 -679.25,-608.72 -23.5,8.57 -40,-26.95 -61.97,-28.65 -40.94,-3.16 -38.82,25.43 -59.59,32.23 0,-22.27 25.47,-46.55 -14.3,-46.55 -43.57,0 -101.13,2.02 -140.61,-16.71 -55.81,-19.57 -210.63,-190.39 -258.6,-171.88 -12.02,4.64 -39.43,47.59 -42.9,37 -2.34,0 -2.72,-0.69 -4.76,-1.19 0,-110.21 -125.08,-212.26 -188.29,-299.59 -19.58,-27.04 -125.13,-77.1 -125.13,-108.61 35.95,-9.02 43.85,-15.93 78.65,-7.16 2.08,8.26 7.15,24 7.15,32.22 23.17,7.72 46.83,-2.05 70.31,3.58 35.23,8.44 26.98,44.34 53.63,56.1 54.46,24.03 132.64,-16.39 185.9,-37 51.25,-63.47 86.04,-108.15 158.49,-144.42 45.41,-22.74 95.96,-26.18 126.32,-72.81 59.14,-90.8 90.57,-172.82 90.57,-285.27 0,-20.81 -31.2,-33.76 -41.71,-54.9 -12.27,-24.65 3.22,-72.03 -11.92,-88.33 -37.92,-40.86 23.04,-27.38 40.52,-38.19 71.28,-44.05 -12.59,-259.36 -16.68,-321.07 -33.67,-124.27 -44.45,-249.25 -134.66,-346.14 -24.32,-26.11 -30.84,-79.74 -45.29,-112.2 -16.47,-37.02 -35.66,-115.13 -58.39,-142.04 -19.22,-22.74 -62.26,-90.23 -48.86,-114.58 15.32,-27.81 8.21,-58.59 17.88,-88.32 10.98,-33.78 79.09,32.34 81.03,-56.1 0,-30.73 -12.6,-55.26 -10.72,-84.75 1.76,-27.76 26.21,-3.93 26.21,-48.93 10.56,-4.54 32.82,-8.49 44.1,-10.75 5.28,-10.57 -3.13,-51.32 11.91,-51.32 20.53,61.95 69.12,-22.28 69.12,-57.29 0,-62.75 -9.68,-71.99 32.18,-119.36 22.1,-25 -30.83,-56.94 -22.65,-75.2 17.35,-38.76 76.95,-34.96 51.25,-97.87 -31.2,-76.39 -58.22,-120.79 -115.6,-182.62 -38.87,-41.87 -189.63,-220.6 -194.24,-268.55 -43.07,-92.55 -85.74,-177.28 -139.43,-263.78 -38.24,-61.59 -34.65,-153.6 28.6,-195.75 39.24,-26.16 57.09,-64.32 89.38,-96.68 22.93,-22.99 75.53,-118.45 94.14,-127.71 9.89,-4.93 71.23,16.06 101.29,4.77 42.06,-2.08 63.91,-26.29 98.91,-34.61 27.42,-6.52 58.6,-0.87 88.19,-7.16 30.21,-6.41 173.57,-1.09 177.56,-13.13 39.38,0 58.94,48.64 106.06,38.19 51.22,-11.37 98.02,-37.57 132.27,-78.78 89.61,-107.78 113.32,-193.04 137.05,-324.65 13.7,-75.96 57.31,-135.43 82.22,-206.49 12.79,-51.28 54.41,-106.87 60.78,-155.16 4.6,-34.84 12.72,-87.12 23.83,-120.56 6.04,-18.21 96.52,-159 107.25,-161.13 0,-20.98 -26.21,-33.2 -26.21,-57.29 0,-32.54 -11.9,-59.82 -15.5,-89.52 -10.04,-82.85 -9.21,-130.15 -50.05,-201.71 -53.31,-40.09 -72.38,-114.85 -82.22,-179.04 -11.14,-72.73 38.45,-64.89 84.61,-74 4.6,-18.65 56.79,-49.19 72.69,-60.88 27.42,-20.18 24.83,-60.37 47.67,-79.97 63.47,-54.44 84.47,-72.99 90.56,-165.9 5.77,-87.94 151.43,-128.56 176.37,-229.17 11.76,-2.91 23.14,-6.06 26.22,9.55 21.17,5.25 3.24,56.51 53.62,20.29 30.57,-21.99 79.33,-53.02 102.49,-83.55 58.76,-55.25 149.88,-98.5 193.05,-167.1 35.4,-56.23 62.76,-55.34 108.44,-103.84 82.78,-87.87 162.33,-193.63 190.67,-307.95 2.19,-0.54 1.84,-0.2 2.38,-2.39 33.52,0 21.07,25.63 57.21,-8.35 23.35,-21.94 32.63,-61.48 36.94,-91.91 10.44,-73.77 27.6,-173.85 52.43,-243.49 3.77,-72.44 23.87,-145.54 10.73,-218.42 -8.64,-47.9 -15.55,-94.86 -17.88,-144.43 -3.55,-75.2 -42.28,-145.45 -27.41,-220.81 19.45,0 52.11,27.31 66.74,38.2 35.43,26.35 27.98,46.91 48.86,74 40.77,52.87 46.72,141.8 34.55,205.29 -4.83,25.19 -12.09,128.91 17.88,128.91 0.65,-1.99 2.38,-2.64 2.38,-5.97 4.92,-1.22 5.47,-15.51 16.69,-15.51 6.43,19.41 17.97,35.62 29.79,53.71 21.01,32.18 -3.36,25.69 4.76,58.48 36.22,9.09 22.17,-20.13 46.48,-26.26 0,-12.83 33.25,-73.84 41.71,-87.13 17.75,-27.9 -57.31,-44.75 -50.05,-68.03 5.3,-16.98 24.67,-32.21 7.15,-47.74 -19.14,-16.98 -43.08,-0.62 -58.39,-35.81 -17.43,-40.03 -33.57,-59.79 -41.67,-106.06 0,-80.84 34.93,-116.23 5.96,-195.74 -26.18,-71.82 -86.7,-45.26 -129.89,-91.9 -26.84,-28.97 -22.57,-77.64 -45.28,-106.23 -32.54,-40.99 12.89,-82.69 23.83,-121.74 9.15,-32.63 30.49,-15.52 54.81,-15.52 15.71,-46.63 26.22,-86.81 26.22,-143.23 0,-105.96 -59.31,-120.16 -77.46,-192.16 14.03,0 33.04,9.55 46.48,9.55 -2.8,-8.54 -69.5,-24.23 -86.99,-41.78 -36.72,-36.83 -37.09,-49.67 -94.15,-39.38 -30.3,5.47 -33.12,-170.65 -26.21,-196.94 11.95,-45.4 -24.28,-110.75 5.96,-149.2 39.97,-50.84 91.38,-79.79 112.01,-142.03 58.69,43.71 186.89,23.37 252.64,10.74 92.19,-17.72 158.94,-109.73 240.71,-131.29 69.83,-18.4 123.55,-18.67 184.71,-77.58 44.43,-19.47 171.7,-150.52 209.74,-193.36 42.91,-48.31 148.73,-37.74 214.5,-66.84 7.14,-3.16 47.23,-29.8 51.24,-17.9 16.35,0 17.07,79.04 28.6,91.9 10.8,12.06 38.13,-69.39 38.13,-82.35 133.03,0 208.21,-25.84 330.09,-96.68 45.71,-26.57 291.82,-191.22 326.52,-182.62 0,69.26 80.97,53.18 137.04,42.97 66.9,-3.31 83.94,-28.37 146.58,-15.51 31.4,6.45 79.52,-43.38 92.94,-25.07 17.86,24.35 -0.81,44.13 41.71,32.23l110.83 -31.03c216.64,-60.65 259.56,-159.9 375.37,-334.2 12.14,-18.26 73.73,-74.47 76.27,-84.74 -65.29,-22 97.39,-94.91 115.59,-88.33 79.64,28.84 88.28,101.46 188.29,101.46 7.61,-30.83 -24.64,-62.07 -54.82,-62.07 -26.29,0 -10.15,-46.2 -50.05,-58.48 -78.59,-24.21 16.9,-107.02 38.13,-142.04 36.81,-19.85 68.26,-41.17 86.99,-78.77 15.7,-31.51 33.03,-72.1 71.5,-64.46 6.76,27.38 29.79,38.61 29.79,77.59 0,20.92 21.56,62.38 28.6,83.55 4.88,14.65 -9.76,62.24 5.96,65.64 29.45,6.39 45.75,-20.29 70.31,-20.29 3.82,-15.42 58.04,7.89 65.54,10.74 30.25,11.48 61.15,-22.01 34.56,-13.13 -13.27,4.42 -30.07,12.74 -39.32,-1.19 -20.04,-30.15 -24.12,-20.29 -60.78,-20.29 -38.91,0 -64.22,-33.17 -54.81,-74 10.23,-44.42 33.06,-75.52 71.5,-99.07 52.14,-31.96 2.37,-117.36 78.64,-99.06 40.42,9.69 45.61,-20.62 3.58,-31.03l1.19 -45.36c0.63,-24.34 -31.29,-20.21 -34.56,-33.42 -27.09,-5.38 0.57,-81.15 -3.57,-97.87 -45.23,-11.4 -67.33,14.25 -94.14,-39.39 -14.67,-29.34 -38.62,-58.94 -15.51,-94.52 -1.26,-19.26 -15.33,-119.53 -53.63,-62.07 -20.74,31.11 -49.78,15.11 -60.77,-15.52 -6.84,-19.08 -30.01,-22.17 -42.9,-38.19 -15.88,-19.76 -39.05,-38.16 -57.2,-58.49 -38.6,-43.21 -71.24,-6.02 -109.64,-28.64 -40.8,-24.04 -50.81,-103.47 -63.15,-148l9.53 -33.12 11425.75 0zm-14136.14 4082.93c-14.27,-4.18 -32.58,-31.67 -36.94,-45.35 -4.59,-14.44 -6.25,-21.21 4.77,-32.23 9.69,-9.69 15.67,-17.56 30.39,-16.71 14.27,0.82 10.29,37.53 15.49,45.95 3.11,5.03 10.39,13.67 10.72,19.7 0.28,5.29 -9.55,24.83 -14.3,26.85l-10.13 1.79zm-120.35 -418.35c-10.57,-3.67 -28.58,-16.97 -37.54,-24.47 -17.66,-14.76 -31.51,-33.52 -35.15,-56.69 -1.13,-7.21 -5.97,-14.52 0,-20.89 9.19,-9.79 31.08,8.19 41.11,11.94 7.42,2.78 15.18,2.29 22.64,5.37 18.3,7.58 37.35,15.56 39.92,36.4 1.27,10.28 3.62,21.47 4.17,31.63 0.52,9.74 -17.05,10.42 -24.43,13.13l-10.72 3.58zm-152.53 -160.53c-6.66,-20.43 -14.38,-47.74 -13.71,-69.23 0.08,-2.62 8.61,-29.74 13.71,-22.68 6.3,8.7 5.78,25.31 10.72,35.81 3.55,7.53 5.75,16.95 8.94,25.06 3.75,9.57 13.11,22.32 13.11,32.23 0,2.71 -7.3,8.25 -10.13,9.55 -6.26,2.86 -14.31,1.92 -20.86,1.19l-1.78 -11.93zm-2837.93 4823.25c-4.66,-1.41 -7.73,-6.45 -11.32,-9.54 -11.77,-10.17 -36.62,4.21 -45.88,-13.13 -7.38,-13.84 5.5,-42.57 17.28,-50.73 23.5,-16.26 40.57,24.02 51.24,36.4 6.27,7.29 16.72,15.56 20.85,24.47 6.96,14.97 -8.75,22.34 -21.45,19.7l-10.72 -7.17zm2740.71 4861.46c71.93,-54.02 56.53,-111.81 -10.72,-162.33 -75.03,-56.36 -40.71,-100.37 -100.1,-155.17 -25,-23.06 -63.74,-80.33 -9.54,-62.06 0,47.26 226.86,125.12 240.72,102.65 49.16,-79.73 122.43,-226.1 203.78,-273.33 70.23,-40.76 140.78,-39.52 194.24,-109.81 8.86,-11.66 41.9,-92.73 21.45,-97.88l-166.83 -77.58c-73.1,-33.98 -99.88,-94.29 -195.44,-94.29 -163.23,0 -262.69,119.31 -418.28,128.9 -29.52,1.82 -23.73,34.62 -71.5,34.62 -56.81,0 -19.41,37.54 -23.83,74 -6.51,53.78 -86.99,51.54 -75.08,107.42 4.59,57.02 -44.22,69.57 -53.62,115.78 -14.69,72.28 -9.54,156.78 -9.54,231.55 0,80.03 -11.94,140.28 -34.56,213.65 1.35,6.03 4.77,18.92 4.77,26.26 40.6,13.68 23.26,61.6 59.59,72.81 36.4,11.22 74.76,18.55 112.01,28.65 31.08,8.42 68.43,18.82 91.76,-10.74 32.68,-41.43 50.31,-41.85 98.91,-33.42 39.02,6.76 76.99,-28.55 112.02,-44.17l29.79 -15.51zm-2979.64 -12915.14c-14.56,-25.92 -12.82,-54.22 -14.3,-82.95 -1.04,-20.05 4.5,-53.5 32.18,-36.41 15.76,9.72 26.53,26.38 33.96,42.97 5.75,12.82 15.17,24.49 21.45,37.6 6.86,14.35 19.44,38.41 18.47,54.31 -1.47,23.86 -71.91,-4.05 -79.84,-7.16l-11.92 -8.36zm377.16 374.19c-14.55,-2.21 -22.98,-38.07 -26.22,-49.53 -5.7,-20.1 0.39,-40.39 20.26,-49.54l51.84 -23.87c16.24,-7.48 26.36,-6.21 40.51,3.58 25.22,17.47 49.01,38.08 75.08,54.91 12.69,8.2 32.9,26.18 20.85,42.96 -10.17,14.15 -24.77,20.13 -40.51,26.86 -21.69,9.29 -34.03,33.78 -58.39,38.19 -34.07,6.16 -46.53,-8.75 -70.31,-31.03l-13.11 -12.53zm803.18 -28.05c0.65,-13.35 15.17,-32.82 29.19,-32.82 11.64,0 19.7,5.46 28.01,13.13 13.72,12.65 -19.82,18.68 -17.28,34.61 1.05,6.64 7.94,16.81 -2.98,18.5 -10.45,1.61 -25.7,-8.42 -32.77,-15.52l-4.17 -17.9zm-1148.76 988.88c-28.96,-54.03 -115.49,9.84 -110.23,-60.27 3.53,-47.15 -58.39,-37.71 -58.39,-94.89 0,-2.32 38.48,-26.48 45.28,-38.8 18.85,-34.19 -1.66,-56.94 34.56,-88.92 58.08,-51.3 148.26,32.96 207.35,42.37 38.92,6.2 133.74,52.31 150.74,90.72 8.27,18.68 5.46,34.24 10.13,53.11 3.99,16.08 57.47,47.5 28.01,53.12 -52.15,9.94 -20.68,94.94 -89.97,78.17 -32.22,-7.79 -66.53,-28.64 -98.31,-28.64 -41.41,0 -75.07,19.26 -118.57,8.35l-0.6 -14.32zm85.2 81.16c-3.22,0 -8.68,-0.55 -11.91,0 -5.42,0.94 -12.27,3.62 -16.09,7.17 -1.11,1.04 -2.3,2.03 -3.58,2.98 -5.32,3.97 -3.2,14.33 0.6,19.1 2.49,3.14 10.58,4.34 14.3,2.38 3.72,-1.96 6.47,-6.26 10.13,-8.35l6.55 -23.28zm-212.71 445.21c-16.27,-39.37 2.57,-56.24 -31.58,-87.13 -14.87,-13.44 -47.15,-64.76 -63.75,-47.15 -19.61,20.82 -46.46,26.34 -65.54,-1.79 -16.45,-24.27 9.1,-40.92 -19.66,-63.85 0,-13.96 21.2,-29.03 25.02,-45.36 5.22,-22.26 9.89,-46.85 10.73,-69.83 0.9,-24.43 3.37,-107.54 -25.62,-108.61 -39.84,-1.48 -40.41,-28.76 -67.33,-54.91 -21.24,-55.18 -84.18,-62.54 -125.72,-94.29 -34.36,-26.27 -28.19,-61.25 -69.71,-90.11 -96.04,-66.74 -79.25,-165.73 -79.25,-266.17 0,-35.83 -2.16,-89.73 -37.54,-107.42 -37.11,-18.54 -64.85,-49.74 -84.6,-85.35 -18.14,-32.69 -69.73,-170.19 -116.79,-161.13 -42.69,8.21 -73.43,76.32 -130.48,79.97 -29.8,1.91 -66.45,-9.55 -73.89,27.45 -7.71,38.3 -50.76,49.47 -73.88,74.01 -15.37,16.33 -86.4,53.14 -84.01,62.06 5.69,21.28 35.17,75.9 60.77,72.21 0.94,-1.62 1.05,-2.01 2.98,-2.38 16.13,-22.63 132.71,-48.22 154.32,-46.55 39.41,3.25 56.61,25.51 58.39,63.26 1.74,37.09 4.77,74.96 4.77,112.19 -1.21,24.03 12.71,52.07 29.2,68.63 13.17,13.21 3.56,25.07 -5.96,35.21 -8.91,9.51 6.56,30.78 11.32,39.39 7.22,13.07 0.07,30.92 5.36,44.16 3.28,8.24 21.12,1.71 23.83,17.91 11.11,66.37 68.07,92.33 120.96,119.95 23.56,12.31 36.14,50.1 60.18,54.31 33.21,5.81 30.38,16.22 30.38,47.74 -47.1,70.91 74.51,139.46 117.98,173.07 22.52,17.4 103.58,83.99 96.52,111.6 -10.65,41.69 -41.18,28.72 -70.9,45.36 -24.31,13.6 -32.52,45.52 -58.99,53.71 -28.98,8.98 -39.27,-12.1 -61.96,-22.68 -34.82,-16.23 -43.9,35.27 -83.42,27.45 -51.51,-10.19 -73.01,2.09 -110.82,37.6 -68.19,84.03 -185.17,130.03 -245.49,224.99 -57.52,90.53 48.13,67.73 71.5,114.59 11.14,22.33 -8.05,46.49 14.9,66.84 23,20.38 73.26,40.89 104.27,42.37 89.77,1.25 147.59,16.46 230.42,31.63 60.91,11.15 56.42,27.45 103.68,-16.71 24.71,-23.1 114.57,-30.36 150.15,-41.78 21.36,-6.86 97.14,-66.97 110.83,-62.06 108.88,39.07 93.16,-47.3 162.06,-58.49 52.99,-8.61 16.3,-144.15 77.46,-185 35.14,-23.48 56.81,-45.52 10.73,-60.88 -47.59,-15.85 7.68,-54.9 -36.94,-54.9l-24.88 -13.13zm-1144.58 -374.78c-34.64,-23.2 -36.65,-97.77 -44.09,-134.28 -7.52,-36.95 -34.71,-90.85 30.38,-93.1 46.11,-1.6 69.61,13.53 112.02,-13.73 32.09,-20.64 66.65,-16.43 97.12,-37.6 46.36,-32.19 123.09,20.44 145.98,65.05 20.42,39.78 16.47,98.4 13.1,142.04 -7.6,98.38 -21.96,131.5 -122.74,158.75 -43.99,11.9 -74,-24.79 -113.2,-28.05 -50.15,-4.16 -82.65,3.52 -114.4,-44.16l-4.17 -14.92zm1399.6 257.21c-15.58,-0.54 -24.35,-20.94 -26.82,-34.61 -5.87,-32.51 31.65,-37.23 50.05,-17.91 8.77,9.2 20.38,19.07 19.67,32.83 -0.71,13.96 -27.59,22.52 -37.54,28.64l-5.36 -8.95zm645.28 150.39c11.57,-28 -2.77,-48.34 34.56,-48.34 22.03,0 33.36,-22.04 33.36,-41.77 0,-31.84 2.73,-89.62 13.71,-119.96 14.89,-41.18 1,-44.81 -40.52,-55.5 -37.6,-9.67 -59.98,-56.26 -64.94,-91.9 -37.91,0 -67.26,22.54 -112.62,14.32 -48.34,-8.75 -67.01,29.84 -122.14,29.84 -91.33,0 -183.52,16.23 -183.52,119.36 0,21.49 -23.26,32.42 -19.66,57.29l10.73 74c34.86,31.68 77.13,29.63 111.42,62.07 43.34,41.02 100.71,78.41 163.25,56.69 29.74,-10.32 54.79,-23.28 86.99,-24.47 31.24,-1.16 66.17,4.78 86.4,-23.87l2.98 -7.76zm290.17 116.38c-4.93,-1.97 -6.22,-4.73 -10.73,-7.16 -15.14,-8.13 -36.22,-11.45 -53.03,-5.38 -7.49,2.71 -23.85,7.88 -23.23,17.31 0.34,5.1 11.22,19.22 14.89,22.68 14.37,13.59 24.44,14.91 42.9,17.9 14.48,2.35 32.67,-3.72 40.52,-16.11l-11.32 -29.24zm-381.93 -486.98c12.27,5.64 67.75,-4.9 61.97,-25.07 -3.97,-13.83 -12.13,-25.57 -16.69,-38.19 -3.33,-9.25 -10.86,-27.55 -19.66,-32.83 -28.04,-16.8 -16.09,16.57 -16.09,31.63 0,21.35 -16.95,36.41 -15.49,59.09l5.96 5.37zm1089.17 692.87c-60.1,-13.97 -168.59,-65.49 -57.2,-106.83 16.22,-6.02 59.89,-24.61 69.12,-39.38 6.04,-9.68 6.32,-36.65 16.09,-38.79 43.19,-9.46 66.48,11.48 97.12,-42.38 18.59,-32.66 24.54,-66.69 63.75,-85.34 37.95,-18.06 96.35,-66.84 135.85,-66.84 18.7,0 37.57,12.2 54.82,17.31 18.53,5.5 40.59,-15.96 55.41,-9.55 2.46,10.12 23.86,24.21 20.85,34.02 -8.81,28.61 -70.31,93.7 -93.54,116.97 -28.28,28.35 -54.23,12.03 -72.1,54.31 -11.43,27.02 -34.4,41.06 -41.71,66.84 -13.47,47.53 -37.65,81.43 -94.14,76.39 -49.65,-4.42 -77.3,34.77 -126.91,26.85l-27.41 -3.58zm-163.85 674.37c-31.97,-9.74 -64.45,-24.54 -96.52,-35.21 -8.05,-2.67 -26.17,-12.71 -23.24,-23.87 1.03,-3.91 27.47,-4.12 32.17,-4.77 18.27,-2.54 50.1,-28.79 66.74,-22.68 12.37,4.53 20.46,13.04 32.17,17.9 21.54,8.93 44.03,6.15 51.84,31.63 9.8,31.99 -12.26,32.76 -41.11,34.02l-22.05 2.98zm-1234.55 -112.19c-15.21,-39.9 11.03,-47.16 26.21,-77.59 10,-20.07 2.74,-40.44 7.75,-60.87 4.65,-19 26.01,0.17 39.92,-2.98 14.23,-3.23 33.01,-26.86 45.28,-25.66 1.19,0.11 11.85,22.12 22.05,25.66 21.41,7.43 76.15,26.02 86.39,46.55 8.93,17.93 -23.03,51.43 -35.15,62.66 -22.78,21.08 -33.92,67.88 -64.35,77.58 -17.2,5.49 -28.47,7.77 -43.5,-4.18 -17.79,-14.13 -38.08,-23.15 -59.58,-31.03l-25.02 -10.14z"/>
  <path class="fil2 str1" d="M5139.04 15371.78c66.31,18.58 137.77,36.58 185.5,6.98 55.53,-34.42 93.03,-25.07 157.3,-25.07l0 -3.58c-48.04,-9.54 -35.77,-34.38 -94.14,-23.87l-152.53 27.45c-53.6,9.65 -358.4,-53.91 -333.67,-97.87l73.88 -131.3c12.75,38.9 -12.43,109 38.14,132.49 71.5,33.23 -1.57,-77.6 23.83,-109.81 26,-32.95 55.52,-52.56 70.31,3.58 5.76,21.85 78.65,138.74 78.65,109.81 0,-33.47 -16.83,-45.03 -28.6,-71.61 -46.14,-104.21 113.11,-24.49 171.6,-60.88 140.03,-5.33 226.71,-111.44 277.66,-225.58 11.27,-25.24 71.85,-191.85 94.14,-137.26 14.13,34.59 11.92,77.04 11.92,115.77 0,47.38 68.15,-71.61 79.84,-82.35 45.61,-41.87 128.35,-110.8 157.3,-163.52 17.76,-32.36 38.15,51.55 78.65,-52.52 21.23,-84.87 7.25,-175.27 27.41,-256.62 3.68,-0.92 4.74,-1.5 8.35,1.19 0,9.4 3.52,49.95 13.1,51.33 1.81,3.62 7.16,3.63 8.35,8.35 83.5,20.7 102.19,-208.27 96.52,-256.62 -16.1,-137.32 -14.76,-269.4 22.64,-398.65 97.57,-138.51 109.98,-285.33 131.09,-444.02 15.46,-116.19 119.87,-93.68 183.52,-177.84 -39.1,-29.12 -210.93,169.25 -210.93,-14.32 0,-111.85 23.73,-215.05 135.85,-256.62 12.03,-4.45 47.59,-38.2 20.26,-38.2 -24.9,0 -171.89,76.02 -172.79,97.88 -2.51,61.07 -32.06,77.62 -42.9,132.48 -11.14,56.4 -12.44,184.65 -82.23,175.46 -15.32,-2.02 -105.85,-9.89 -110.83,-15.52 -22,-24.91 38.72,-182.74 48.86,-212.45 13.69,-72.08 37.38,-133.55 53.63,-202.91 9.69,-41.4 32.06,-82.67 36.94,-122.94 11.18,-92.26 11.64,-172.19 7.15,-267.36 -0.51,-10.97 -5.54,-72.81 -16.68,-72.81 0,20.96 -16.69,53.13 -16.69,83.55 0,51.64 6.95,101.35 -5.96,151.58 -23.3,140.76 -73.58,270.82 -101.29,411.79 -11.26,57.28 -53.65,57.21 -97.72,72.81 -43.39,15.35 -38.47,139.94 -29.48,177.21 -71.13,-2.6 -164.29,-8.19 -212.43,-60.24 -35.73,-43.81 -51.33,-55.86 -103.67,-66.84 -14.63,-3.07 -91.05,-50.81 -90.57,-56.1 1.99,-21.78 96.31,-131.77 120.36,-130.1 57.55,4.02 80.3,-44.51 77.46,-97.87 -3.29,-61.86 98.86,-82.06 119.17,-37.01 14.5,32.14 21.05,59.71 64.35,48.94 44.97,-11.18 46.79,-38.85 44.09,-77.58 -4.73,-67.96 92.95,-46.99 92.95,-77.58 -92.35,-31.12 -94.75,40.64 -125.13,105.03 -39.41,83.56 -68.41,-78.78 -122.74,-78.78 -36.67,0 -149.77,115.47 -144.19,81.17l27.41 -168.3c7.52,-46.25 56.78,-13.44 45.28,-58.48 -7.81,-30.63 11.5,-98.33 19.07,-128.91 10.97,-44.25 67.19,-11.84 97.71,-52.52 12.58,-16.78 81.4,-104.95 94.15,-109.81 14.42,-5.51 70.09,-9.99 75.07,-23.87 3.82,-10.67 0.78,-62.06 -8.34,-62.06 -24.36,73.51 -100.47,64.45 -171.6,64.45 0,18.44 70.67,74.18 -17.88,91.91 -96.58,19.33 -112.93,-19.75 -135.85,102.64 -16.84,89.88 -112.6,290.93 -163.26,367.63 -20.14,30.5 -162.01,185.22 -187.09,183.81 -59.02,-3.32 -27.96,81.63 -89.38,76.39 -53.69,22.12 -64.85,10.07 -91.76,65.64 -19.83,40.93 -31.09,52.53 -70.3,74.01 -46.94,25.73 -14.59,126.31 -4.77,164.71 57.42,224.43 -179.47,9.7 -239.53,-15.52 -54.75,-23 -156.21,-189.6 -203.78,-174.26 -73.19,23.59 -96.6,4.68 -144.19,-62.07 -75.48,-80.63 -616.63,-631.56 -679.25,-608.72 -23.5,8.57 -40,-26.95 -61.97,-28.65 -40.94,-3.16 -38.82,25.43 -59.59,32.23 0,-22.27 25.47,-46.55 -14.3,-46.55 -43.57,0 -101.13,2.02 -140.61,-16.71 -55.81,-19.57 -210.63,-190.39 -258.6,-171.88 -12.02,4.64 -39.43,47.59 -42.9,37 -2.34,0 -2.72,-0.69 -4.76,-1.19 0,-110.21 -125.08,-212.26 -188.29,-299.59 -19.58,-27.04 -125.13,-77.1 -125.13,-108.61 35.95,-9.02 43.85,-15.93 78.65,-7.16 2.08,8.26 7.15,24 7.15,32.22 23.17,7.72 46.83,-2.05 70.31,3.58 35.23,8.44 26.98,44.34 53.63,56.1 54.46,24.03 132.64,-16.39 185.9,-37 51.25,-63.47 86.04,-108.15 158.49,-144.42 45.41,-22.74 95.96,-26.18 126.32,-72.81 59.14,-90.8 90.57,-172.82 90.57,-285.27 0,-20.81 -31.2,-33.76 -41.71,-54.9 -12.27,-24.65 3.22,-72.03 -11.92,-88.33 -37.92,-40.86 23.04,-27.38 40.52,-38.19 71.28,-44.05 -12.59,-259.36 -16.68,-321.07 -33.67,-124.27 -44.45,-249.25 -134.66,-346.14 -24.32,-26.11 -30.84,-79.74 -45.29,-112.2 -16.47,-37.02 -35.66,-115.13 -58.39,-142.04 -19.22,-22.74 -62.26,-90.23 -48.86,-114.58 15.32,-27.81 8.21,-58.59 17.88,-88.32 10.98,-33.78 79.09,32.34 81.03,-56.1 0,-30.73 -12.6,-55.26 -10.72,-84.75 1.76,-27.76 26.21,-3.93 26.21,-48.93 10.56,-4.54 32.82,-8.49 44.1,-10.75 5.28,-10.57 -3.13,-51.32 11.91,-51.32 20.53,61.95 69.12,-22.28 69.12,-57.29 0,-62.75 -9.68,-71.99 32.18,-119.36 22.1,-25 -30.83,-56.94 -22.65,-75.2 17.35,-38.76 76.95,-34.96 51.25,-97.87 -31.2,-76.39 -58.22,-120.79 -115.6,-182.62 -38.87,-41.87 -189.63,-220.6 -194.24,-268.55 -43.07,-92.55 -85.74,-177.28 -139.43,-263.78 -38.24,-61.59 -34.65,-153.6 28.6,-195.75 39.24,-26.16 57.09,-64.32 89.38,-96.68 22.93,-22.99 75.53,-118.45 94.14,-127.71 9.89,-4.93 71.23,16.06 101.29,4.77 42.06,-2.08 63.91,-26.29 98.91,-34.61 27.42,-6.52 58.6,-0.87 88.19,-7.16 30.21,-6.41 173.57,-1.09 177.56,-13.13 39.38,0 58.94,48.64 106.06,38.19 51.22,-11.37 98.02,-37.57 132.27,-78.78 89.61,-107.78 113.32,-193.04 137.05,-324.65 13.7,-75.96 57.31,-135.43 82.22,-206.49 12.79,-51.28 54.41,-106.87 60.78,-155.16 4.6,-34.84 12.72,-87.12 23.83,-120.56 6.04,-18.21 96.52,-159 107.25,-161.13 0,-20.98 -26.21,-33.2 -26.21,-57.29 0,-32.54 -11.9,-59.82 -15.5,-89.52 -10.04,-82.85 -9.21,-130.15 -50.05,-201.71 -53.31,-40.09 -72.38,-114.85 -82.22,-179.04 -11.14,-72.73 38.45,-64.89 84.61,-74 4.6,-18.65 56.79,-49.19 72.69,-60.88 27.42,-20.18 24.83,-60.37 47.67,-79.97 63.47,-54.44 84.47,-72.99 90.56,-165.9 5.77,-87.94 151.43,-128.56 176.37,-229.17 11.76,-2.91 23.14,-6.06 26.22,9.55 21.17,5.25 3.24,56.51 53.62,20.29 30.57,-21.99 79.33,-53.02 102.49,-83.55 58.76,-55.25 149.88,-98.5 193.05,-167.1 35.4,-56.23 62.76,-55.34 108.44,-103.84 82.78,-87.87 162.33,-193.63 190.67,-307.95 2.19,-0.54 1.84,-0.2 2.38,-2.39 33.52,0 21.07,25.63 57.21,-8.35 23.35,-21.94 32.63,-61.48 36.94,-91.91 10.44,-73.77 27.6,-173.85 52.43,-243.49 3.77,-72.44 23.87,-145.54 10.73,-218.42 -8.64,-47.9 -15.55,-94.86 -17.88,-144.43 -3.55,-75.2 -42.28,-145.45 -27.41,-220.81 19.45,0 52.11,27.31 66.74,38.2 35.43,26.35 27.98,46.91 48.86,74 40.77,52.87 46.72,141.8 34.55,205.29 -4.83,25.19 -12.09,128.91 17.88,128.91 0.65,-1.99 2.38,-2.64 2.38,-5.97 4.92,-1.22 5.47,-15.51 16.69,-15.51 6.43,19.41 17.97,35.62 29.79,53.71 21.01,32.18 -3.36,25.69 4.76,58.48 36.22,9.09 22.17,-20.13 46.48,-26.26 0,-12.83 33.25,-73.84 41.71,-87.13 17.75,-27.9 -57.31,-44.75 -50.05,-68.03 5.3,-16.98 24.67,-32.21 7.15,-47.74 -19.14,-16.98 -43.08,-0.62 -58.39,-35.81 -17.43,-40.03 -33.57,-59.79 -41.67,-106.06 0,-80.84 34.93,-116.23 5.96,-195.74 -26.18,-71.82 -86.7,-45.26 -129.89,-91.9 -26.84,-28.97 -22.57,-77.64 -45.28,-106.23 -32.54,-40.99 12.89,-82.69 23.83,-121.74 9.15,-32.63 30.49,-15.52 54.81,-15.52 15.71,-46.63 26.22,-86.81 26.22,-143.23 0,-105.96 -59.31,-120.16 -77.46,-192.16 14.03,0 33.04,9.55 46.48,9.55 -2.8,-8.54 -69.5,-24.23 -86.99,-41.78 -36.72,-36.83 -37.09,-49.67 -94.15,-39.38 -30.3,5.47 -33.12,-170.65 -26.21,-196.94 11.95,-45.4 -24.28,-110.75 5.96,-149.2 39.97,-50.84 91.38,-79.79 112.01,-142.03 58.69,43.71 186.89,23.37 252.64,10.74 92.19,-17.72 158.94,-109.73 240.71,-131.29 69.83,-18.4 123.55,-18.67 184.71,-77.58 44.43,-19.47 171.7,-150.52 209.74,-193.36 42.91,-48.31 148.73,-37.74 214.5,-66.84 7.14,-3.16 47.23,-29.8 51.24,-17.9 16.35,0 17.07,79.04 28.6,91.9 10.8,12.06 38.13,-69.39 38.13,-82.35 133.03,0 208.21,-25.84 330.09,-96.68 45.71,-26.57 291.82,-191.22 326.52,-182.62 0,69.26 80.97,53.18 137.04,42.97 66.9,-3.31 83.94,-28.37 146.58,-15.51 31.4,6.45 79.52,-43.38 92.94,-25.07 17.86,24.35 -0.81,44.13 41.71,32.23l110.83 -31.03c216.64,-60.65 259.56,-159.9 375.37,-334.2 12.14,-18.26 73.73,-74.47 76.27,-84.74 -65.29,-22 97.39,-94.91 115.59,-88.33 79.64,28.84 88.28,101.46 188.29,101.46 7.61,-30.83 -24.64,-62.07 -54.82,-62.07 -26.29,0 -10.15,-46.2 -50.05,-58.48 -78.59,-24.21 16.9,-107.02 38.13,-142.04 36.81,-19.85 68.26,-41.17 86.99,-78.77 15.7,-31.51 33.03,-72.1 71.5,-64.46 6.76,27.38 29.79,38.61 29.79,77.59 0,20.92 21.56,62.38 28.6,83.55 4.88,14.65 -9.76,62.24 5.96,65.64 29.45,6.39 45.75,-20.29 70.31,-20.29 3.82,-15.42 58.04,7.89 65.54,10.74 30.25,11.48 61.15,-22.01 34.56,-13.13 -13.27,4.42 -30.07,12.74 -39.32,-1.19 -20.04,-30.15 -24.12,-20.29 -60.78,-20.29 -38.91,0 -64.22,-33.17 -54.81,-74 10.23,-44.42 33.06,-75.52 71.5,-99.07 52.14,-31.96 2.37,-117.36 78.64,-99.06 40.42,9.69 45.61,-20.62 3.58,-31.03l1.19 -45.36 0 0 56 9.32c-7.37,31.37 14.22,63.26 46.47,63.26 11.3,0 22.39,16.47 29.79,23.87 20.36,20.36 40.53,-1.33 65.55,33.42 29.31,40.69 78.8,33.91 97.71,65.65 14.63,24.58 33.55,66.44 60.78,77.58 44.86,18.37 79.98,41.2 98.91,87.13 14.61,35.43 59.41,122.98 91.76,143.23l201.39 7.16c32.33,36.63 10.39,27.65 26.22,52.52 16.72,26.29 64.86,8.11 76.27,48.94 4.46,15.97 6.79,76.39 22.64,76.39 2.54,-7.77 16.72,-21.6 19.07,-28.65 20.26,0 19.36,35.35 36.94,27.45 28.15,-12.64 27.18,-2.17 50.05,3.59 16.73,67.51 85.62,-10.75 92.95,-10.75 69.49,0 -37.73,146.81 42.9,146.81 35.49,0 -6.41,-83.93 36.94,-60.87 10.09,5.37 72.69,44.65 72.69,-5.97 16.21,-8.07 93.09,-68.67 117.98,-54.9 47.19,26.13 46.34,-53.37 85.8,-17.91 56.29,50.57 35.7,59.54 58.39,125.33 5.36,15.56 28.6,51.98 28.6,65.65 0,50.68 30.86,14.21 56.01,22.68 0,12.89 -9.53,16.73 -9.53,31.03 4.31,1.07 39.66,7.32 40.52,10.74 9.35,2.31 0,20.32 0,27.45 1.69,0.57 7.15,11.51 7.15,14.33l-51.25 10.74c-0.54,2.19 -0.2,1.84 -2.38,2.39 -0.9,3.63 -3.87,5.91 -4.77,9.54 -5.31,1.34 -5.93,10.76 -10.72,11.94 0,55.7 -22.17,31.43 26.21,79.97 22,17.29 30.99,9.88 30.99,38.19l39.32 -1.19c15,59.52 96,52.21 121.56,108.62 16.88,37.28 -8.29,97.93 3.57,115.77 71.25,107.24 140.85,41.6 226.42,47.75 25.69,1.85 47.74,86.01 115.59,105.03 89.5,25.08 199,87.21 258.6,146.81 51.67,51.67 28.12,50.29 104.86,62.07 32.28,4.96 53.44,26.15 81.04,33.42 32.1,8.46 66.12,-6.34 96.52,7.16 52.69,5.53 144.9,41.77 188.29,-16.71 24.24,-32.68 77.15,-73.13 119.17,-81.16 44.24,-8.46 60.84,32.29 95.33,25.06 64.35,-13.48 61.3,-88.73 126.32,4.78 36.13,51.98 79.02,7.35 67.92,84.74 -6.14,1.52 -14.3,23.85 -14.3,31.03 74.97,18.82 -17.4,32.95 -38.13,96.68 -24.84,76.38 52.64,32.03 69.12,101.46 18.33,77.17 7.45,21.91 59.58,42.97 108,43.65 200.73,185.38 326.52,153.97 40.72,-8.16 77.15,-51.06 114.4,-21.49 38.97,30.95 31.16,135.79 14.3,180.23 -6.75,17.82 -22.02,24.72 -34.56,35.81 -32.84,29.01 -74.44,148.45 -71.5,194.56 2.26,35.56 -17.9,94.15 -3.57,122.93 18.46,37.04 23.87,63.41 8.34,106.23l-16.68 50.13 4.76 29.84 143 -88.32 214.51 94.29c7.8,15.64 16.27,41.48 34.55,46.55 29.13,8.07 1.93,-53.19 51.25,-40.58 25.83,6.61 48.04,23.69 76.26,19.1 49.14,-7.98 80.64,48.16 125.13,66.84 38.58,16.21 68.28,-17.41 85.8,-9.55 33.99,15.27 32.59,22.68 73.89,22.68 52.18,0 78.38,0.63 122.74,-37 12.97,-11.01 19.38,-38.17 36.94,-45.36 33.92,-13.88 27.73,6.27 51.24,16.71 46.16,58.3 132.06,-18.58 150.15,50.13 11.84,45.01 -1.46,61.24 26.22,101.45 12.92,18.76 49.45,28.16 38.13,53.72 -23.88,53.96 -23.83,88.68 46.48,76.38l75.08 -13.13c19.83,-3.47 17.2,35.81 42.9,35.81 11.08,-22.16 36.42,-51.59 63.15,-29.84 31.06,25.26 54.38,-9.55 90.57,-9.55 6.64,33.69 81.34,8.59 106.06,25.07 40.51,26.99 -20.71,55.01 25.03,68.03 37.95,10.81 44.42,52.86 90.56,31.04 41.46,-19.62 167.66,29.48 171.61,3.58 18.02,-118.14 184.56,17.77 209.73,1.19 14.62,-9.62 -20.16,-30.15 -2.38,-52.52 34,-42.8 105.5,-96.64 122.74,-9.55 19.27,4.85 28.56,-13.17 47.67,-19.09 24.76,-7.66 31.74,12.95 52.43,15.51 22.59,-1.5 53.72,-7.76 75.08,-2.38 0,84.4 -2.42,47.5 51.24,31.03 58.19,-17.85 65.6,65.49 110.83,93.1 15.31,9.35 30.58,40.55 42.9,3.58 16.27,-48.84 61.64,-71.34 112.01,-82.36 37.86,-8.29 42.9,-3.61 72.7,26.26 24.35,24.39 122.28,17.91 157.3,17.91 48.12,0 34.72,-54.69 106.06,-37.01 2.89,11.71 -15.14,19.12 -10.73,37.01 32.9,8.15 32.14,5.42 53.63,-21.49l-2.62 -377.68c28.86,-9 46.41,-30.76 74.12,-37.69 43.03,-10.76 63.64,28.65 108.44,28.65 60.86,0 17.4,-78.81 53.63,-114.58 12.37,-12.22 30.66,-46.58 51.24,-29.84 31.6,25.71 21.84,37.15 60.77,13.13 51.13,-31.55 71.5,-5.69 71.5,45.35 0,52.74 48.3,22.54 87,35.81 3.8,1.3 2.3,-0.22 3.57,3.58 6.24,18.58 -3.05,53.98 14.3,63.26 37.45,20.04 35.95,-40.21 85.8,-1.19 59.63,46.68 93.44,-74.99 146.58,-1.2 40.74,56.56 79.13,100 81.03,174.27 0.94,36.95 97.79,-46.61 115.6,-50.13 98.45,-19.46 34.29,72.65 125.12,84.74 68.18,9.07 67.93,41.29 67.93,100.26 0,100.92 167.72,66.77 147.77,131.29 -11.98,38.75 0.46,48.49 36.94,59.68 27.78,8.52 33.91,56.28 58.39,75.2 27.26,21.06 61.22,54.04 83.42,79.97 41.08,47.98 83.46,25.15 116.78,87.13 21.34,39.71 72.24,57.55 85.8,97.87 29.27,86.99 138.21,98.27 221.66,122.94 45.17,13.35 68.2,-13.13 110.82,-13.13 33.94,0 119.03,49.26 140.62,26.26 20.79,-22.14 86.21,-32.08 88.18,11.94 3.46,77.1 90.35,-15.74 104.87,51.32 13.16,60.78 -45.42,118.78 71.5,91.91 42.34,-9.73 84.59,-14.48 122.74,9.55 25.27,15.92 13.36,51.77 52.44,56.09 110.92,12.25 174.54,132.88 288.38,137.27 44.02,1.7 75.7,-25.91 120.36,-4.78 54.05,25.57 113.8,22.1 154.92,59.68 29.62,27.08 60.25,22.66 89.1,3.4 5.69,-3.78 7.64,-7.28 4.09,1.07l-26.45 62.37 -126.32 59.68c-22.23,10.5 -105.82,11.62 -108.44,8.36 -12.67,-15.7 -7.38,-62.04 -27.41,-16.71 -48.19,109.07 -244.18,-33.31 -314.61,-54.91 -33.63,-10.32 -58.8,-49.53 -79.84,-53.71 -18.4,-3.65 -36.45,2.93 -54.82,-1.19 -49.93,-11.19 -72.03,42.97 -120.36,42.97 -57.22,0 -66.05,-59.5 -134.65,-58.69l0 229.37 13.1 -2.39c36.68,0 56.22,-8.6 81.04,-33.42 22.69,-22.69 58.52,32.75 92.95,15.52 28.91,-14.48 36.41,-3.92 63.16,4.77 37.6,12.23 14.63,61.34 33.36,72.81 9.78,6 25.59,-0.21 32.18,10.74 10.26,17.03 -6.04,38.29 15.49,50.13 14.4,7.91 30.47,8.51 38.14,23.87 9.37,18.74 13.71,66.44 14.3,88.33 55.23,41.3 -33.15,53.72 42.9,72.81 0,85.49 57.61,76.72 61.96,124.13 1.92,21.03 50.03,112.99 61.97,132.49 8.38,13.67 54.78,11.65 73.88,58.48 17.04,41.81 3.09,99.07 72.7,99.07 49.25,0 32.32,45.35 47.66,45.35 33.11,0 77.45,-42.72 83.42,-3.58 3.16,20.76 15.15,96.68 26.22,96.68 51.8,0 68.11,49.69 91.76,2.39 38.21,0 28,61.01 36.94,85.94 12.97,36.14 53.64,-41.53 76.27,0 11.34,20.83 -14.96,62.32 -4.77,70.42 8.9,7.06 24.22,-2.89 32.18,7.16 18.36,23.2 16.67,83.66 -21.45,93.1 0,37.06 36.48,65.02 40.51,89.52 17.55,2.89 -6.17,57.93 -11.91,65.65 -19.05,25.59 -57.16,12.23 -85.81,32.22 -77.19,29.19 -60.49,55.98 -1.19,89.52 29.96,16.95 34.77,42.35 -3.57,59.68 -101.63,45.92 -3.62,97.31 9.53,150.39 2.18,0.55 1.84,0.2 2.38,2.39 2.34,0.76 0.06,0.42 2.39,1.19 0,24.63 -32.34,51.07 -32.18,52.52 2.22,19.79 42.22,27.15 45.29,39.39 2.41,0.47 8.96,3.05 9.53,4.77 4.88,0.98 7.81,5.02 10.73,5.97 8.16,32.92 -35.33,129.87 -10.73,136.07 1.19,8.49 55.36,27.12 58.39,39.39 2.93,0.72 2.85,2.94 4.77,3.58 0,33.35 9.53,72.4 9.53,107.42 0,42.57 -57.74,61.14 -29.79,94.29 37.03,43.95 80.05,78.83 120.92,121.14 4.94,5.11 5.98,4.86 -1.38,3.91 -19.38,-2.61 -39.21,-3.3 -59.53,-3.3 -60.24,0 -116.52,-22.05 -176.36,-0.6 -26.27,9.41 -68.98,54.03 -95.33,25.07 -34.04,-37.43 -66.45,-19.35 -94.74,-60.28 -11.08,-16.03 -19.61,-36.71 -32.77,-50.73 -26.3,-28.02 -56.35,-49.62 -92.69,-68.7l-497.63 1817.89 -62.16 -33.36 -1285.2 1618.4 -1658.05 1312.98 -3433.22 1161.35 0 38.2 -22.18 10.32c-46.12,33.3 -295.78,104.33 -278.13,183.04 9.29,41.47 -39.44,27.31 -56.01,51.32 -19.5,28.23 19.21,53.71 -30.98,53.71 -34.55,0 -27.83,62.61 -58.39,84.75 -55.6,40.26 -14.71,103.64 -85.8,120.55 -16.94,4.03 -28.8,27.62 -45.29,37 -47.72,41.81 -38.37,72.81 -107.25,72.81 -44.7,0 -27.64,63.01 -51.24,84.74 -21.54,19.82 -96.42,180.83 -108.44,183.81 -3.08,21.82 -144,84.79 -151.34,99.07 -20.61,40.12 32.17,101.03 32.17,131.29 0,36.15 69.12,-17.14 69.12,41.78 0,59.01 32.17,114.9 32.17,164.71 -18.28,4.6 -132.04,94.42 -145.38,53.71 -30.25,0 -45.6,75.76 -77.46,25.07 -22.99,-36.6 -1.63,-55.13 -23.83,-89.52 -26.12,-40.48 -32.18,-142.38 -32.18,-190.97 -26.2,-8.83 -116.76,11.26 -126.32,-27.46 -32.9,0 -50.58,25.89 -82.22,5.97 -17.55,-11.06 -50.07,-53.71 -65.55,-53.71 -6.36,19.42 -12.26,55.41 -38.13,59.68 0,60.95 59.37,95.09 8.34,164.71 -35.77,48.82 -14.66,147.14 -47.66,211.27 -8.72,23.95 -12.21,39.58 -33.37,53.71 -6.94,4.64 -30.18,14.71 -22.64,26.26 29.41,45.01 -27.68,27.08 -11.92,65.65 17.55,42.98 17.38,12.46 -7.15,46.54 -5.16,7.16 -12.81,55.62 -7.15,63.26 25.7,34.64 60.18,51.81 -15.49,66.84l0 4.78c28.92,7.17 1.25,54.36 19.06,63.26 0,110.88 -72.69,9.25 -72.69,62.07 0,40.11 1.44,93.99 40.52,103.84 12.13,48.95 -36.81,85.93 -14.3,126.52 19.33,34.84 -33.24,84.44 -52.43,112.19 -15.67,22.64 -84.61,32.47 -87,53.71 -5.2,46.16 -26.69,62.95 -36.94,115.78 0,31.46 -56.07,62.27 -4.77,75.2 0,32.55 -29.75,57.05 -35.75,84.74 -8.87,40.98 56.94,44.18 9.54,72.81 -67.02,40.5 -128.87,28.69 -194.25,69.23 -47.32,29.33 -27.35,64.74 -40.51,112.19 -35.75,128.94 65.74,47.89 79.84,105.04 43.62,10.81 -43.91,86.47 -47.67,89.52 -28.16,22.92 -66.73,72.65 -66.73,111 0,113.7 46.63,168.39 -57.2,239.91 -53.17,58.04 42.63,116.57 -9.54,139.65 -57.99,25.67 2.99,88.38 -77.45,103.84 -56.39,10.83 -18,40.75 -50.06,72.81 -11.5,11.5 -10.65,23.44 4.77,34.61 21.5,15.56 -14.3,24.44 -14.3,42.97 0,16.58 13.56,46.94 30.98,51.33 0,19.14 8.1,37.88 5.96,64.45 -6.65,26.75 6.66,71.61 39.33,71.61 22.52,0 43.33,-25.06 66.73,-25.06 0.48,1.47 0.92,1.9 2.39,2.39 0,44 -11.68,88.32 -64.35,88.32 -4.95,24.62 -3.13,36.38 -11.92,60.87 -8.71,24.29 -21,48.16 -27.41,75.2 -2.95,12.43 18.21,26.95 10.73,35.81 -11.73,13.87 -38.03,19.92 -53.63,37 -28.8,31.51 -24.13,60.73 -27.41,101.45 13.76,27.64 -9.06,69.64 -5.96,71.62 18.02,11.49 68.26,25.73 4.77,47.74 -52.6,18.23 -134.87,104.91 -183.52,95.49 -21.87,-4.24 -99.59,-0.48 -116.78,16.71 -25.67,25.67 -102.9,31.19 -159.69,51.32 -111.51,39.51 -157.3,131.3 -157.3,237.52 0,31.36 -23.07,82.36 -58.39,82.36 -3.65,11.04 9.38,54.66 -15.49,59.68 -5.09,20.21 -14.37,13.29 5.95,40.58 3.63,4.89 39.49,32.18 28.6,35.81 0,23.81 -5.95,42.27 -5.95,65.64 -82.45,20.7 -0.38,90.46 22.64,126.52 37.13,58.13 -109.63,36.78 -131.09,47.75 -61.91,31.63 -59.54,-49.48 -117.97,42.97 -24.23,27.6 -62.92,311.07 -108.45,296 -34.87,-11.55 -59.34,-27.62 -85.8,-51.32 -51.51,-46.16 -56.64,8.93 -78.65,-78.78 -28.49,0 -58.73,8.54 -84.61,21.49 -28.56,14.3 -62.91,-18.73 -89.37,-25.07 -52.73,-12.65 -141.31,-26.62 -194.25,-15.51 -159.08,33.41 -237.99,2.55 -287.19,-157.56 -15.5,-50.43 -26.02,-2.23 -54.82,-31.03 -8.84,-8.84 -9.36,-27.63 -22.64,-28.65 -58.99,-4.57 -53.31,-31.07 -73.88,-79.97 -33.18,-78.84 -25.99,-57.38 -101.3,-87.13l-97.71 -219.62c-5.13,-62.34 -55.1,-73.26 -70.31,-122.93 -11.89,-38.8 -5.38,-81.44 -13.11,-121.75 -17.32,-90.3 -79.23,-78.7 -73.88,-179.04 1.96,-36.94 -30.71,-82.12 23.83,-93.1 0.37,-1.52 0.82,-2.05 1.19,-3.58 7.83,-1.94 -8.76,-44.23 -10.72,-50.13 -4.19,-12.57 -16.69,-41.94 -16.69,-52.51 -17.77,-4.48 -31.6,-35.4 -58.39,-40.59 -33.54,-6.49 -34.35,49.24 -61.97,34.62l-103.67 -54.91 -117.98 -171.87c-33.88,-8.54 -79.95,-41.78 -112.02,-41.78 -47.88,0 -64.16,48.94 -112.01,48.94 -32.66,65.33 -159.38,67.29 -227.61,101.45 -77.38,38.75 -171.94,-5.82 -215.7,-72.81 -28.35,-43.42 -32.49,-94.33 -71.5,-125.32 -10.92,-24.13 -101.23,-81.03 -128.7,-76.39 -52.63,8.91 -106.35,45.6 -139.43,-10.74 -22.13,-37.71 -42.48,-12.59 -75.07,-26.26 -24.89,-10.43 -79.29,-53.55 -95.34,-75.2 -20.64,-27.82 -91.77,-66.31 -94.14,-95.48 -0.99,-12.15 -130.24,-73.85 -147.77,-69.23 -79.64,20.99 -48.57,-21.49 -75.07,-21.49 -11.11,0 -46.46,48.38 -60.09,56.7l-25.81 -33.69c-7.03,3.21 -13.46,4.18 -18.97,2.06 -38.46,-14.8 -11.21,93.34 -39.33,107.42 -59.03,29.55 -16.9,11.46 -30.98,57.29 -6.28,20.45 -46.78,2.98 -51.24,16.71 -12.25,37.68 -1.88,30.34 -42.9,46.55 -16.21,6.41 -33.78,44.38 -45.29,54.91 -10.75,9.84 -24.97,41.18 -32.17,46.55 -22.67,16.9 -30.61,-12.62 -45.29,-17.91 -53.48,-19.31 -42.41,78.33 -64.35,100.27 -10.14,10.14 -50.8,25.8 -54.81,33.42 -7.47,14.19 -11.12,27.25 -26.22,33.42 -15.23,6.23 -24.53,9.13 -36.94,20.29 -37.82,33.98 -83.37,19.49 -123.73,37.24l-37.15 -37.24c-41.01,-5.16 -107.82,-19.92 -134.66,-51.33 -35.17,-41.18 -13.11,-79.59 -13.11,-127.71 0,-26.98 -18.87,-42.86 -8.34,-66.84 13.93,-31.69 38.49,-67.24 63.16,-91.91 10.57,-10.57 4.35,-36.87 14.3,-51.32 26.72,-38.76 73.53,-77.65 107.25,-107.42 36.8,-32.47 48.77,-10.39 54.82,-68.04 10.44,-14.67 53.06,-11.68 45.28,-37 -5.52,-18 10.34,-33.09 22.64,-45.35 11.62,-11.59 94.31,-89.34 95.34,-96.68 10.97,-2.76 -8.82,-30.6 -27.41,-11.94 -21.65,21.71 -19.94,29.84 -51.24,29.84 -6.07,24.49 -53.85,22.02 -60.78,-5.97 -13.21,-53.29 -30.54,-10.88 -53.62,-4.77 -17.65,4.68 -26.65,-28.38 -41.71,-10.74 -19.22,22.49 -45.74,29.42 -64.35,2.38 -31.95,-46.4 -44.46,-18.21 -94.14,-1.19l-3.58 -236.33c-3.52,-0.87 -5.37,-1.19 -9.53,-1.19 -12.37,37.33 -51.42,15.67 -53.63,-21.49 -2.58,-43.23 -22.77,-51.44 -29.79,-85.94 -4.5,-22.09 32.08,-145.61 53.62,-145.61 16.9,0 45.83,7.44 36.95,-21.49 -6.04,-19.65 -11.4,-33.49 15.49,-41.77 15.66,-4.83 15.95,-41.55 23.83,-44.16l0 -2.39c12.37,-3.11 14.28,-23.43 34.56,-16.71 19.96,6.62 3.45,17.77 27.41,3.58 39.71,-23.54 33.58,-34.22 72.69,-5.97 26.62,19.24 29.3,3.42 52.44,-2.39 4.41,-17.79 45.34,10.83 51.24,15.52 19.82,15.73 25.47,1.19 46.47,1.19 19.94,60.84 33.44,47.48 83.42,69.23 37.69,16.39 71.33,-29.53 104.87,-38.19 22.79,-5.89 44.1,-32.67 46.47,-57.3 30.61,-54.88 16.42,-113.62 92.95,-82.35 40.23,16.43 106.16,-51.47 116.79,-83.55 16.75,3.32 103.55,-31.11 116.78,-42.97 46.52,-41.67 -26.76,-83.6 -48.86,-111 -29.73,-36.88 7.67,-60.57 -9.53,-93.1 -9.21,-17.4 -19.79,-32.38 -22.64,-52.52 -3.22,-22.79 -0.8,-41.16 -5.96,-62.07 -55.3,-10.98 -74.25,-121.01 -45.28,-164.71 20.37,-30.72 -8.55,-43.06 -26.22,-64.46 -11.83,-95.51 15.49,-147.24 15.49,-238.71 0,-28.05 -32.11,-24.63 -25.02,-47.74 8.31,-27.04 54.54,-68.04 -3.58,-68.04 -58.91,0 -45.74,-65.5 -33.37,-102.65 7.15,-21.45 -10.35,-124.32 -22.64,-142.03 -8.23,-11.85 -32.04,-5.57 -38.13,-15.52 -9.75,-15.9 -0.74,-22.68 -22.64,-33.42 -21.28,-10.44 -24.06,-16.46 -5.96,-34.61 15.53,-15.56 4.85,-32.79 13.11,-48.94 8.24,-16.09 30.79,-20.09 45.28,-34.61l0.4 -57.11 0 0zm724.82 -10288.85c-14.27,-4.18 -32.58,-31.67 -36.94,-45.35 -4.59,-14.44 -6.25,-21.21 4.77,-32.23 9.69,-9.69 15.67,-17.56 30.39,-16.71 14.27,0.82 10.29,37.53 15.49,45.95 3.11,5.03 10.39,13.67 10.72,19.7 0.28,5.29 -9.55,24.83 -14.3,26.85l-10.13 1.79zm-120.35 -418.35c-10.57,-3.67 -28.58,-16.97 -37.54,-24.47 -17.66,-14.76 -31.51,-33.52 -35.15,-56.69 -1.13,-7.21 -5.97,-14.52 0,-20.89 9.19,-9.79 31.08,8.19 41.11,11.94 7.42,2.78 15.18,2.29 22.64,5.37 18.3,7.58 37.35,15.56 39.92,36.4 1.27,10.28 3.62,21.47 4.17,31.63 0.52,9.74 -17.05,10.42 -24.43,13.13l-10.72 3.58zm-152.53 -160.53c-6.66,-20.43 -14.38,-47.74 -13.71,-69.23 0.08,-2.62 8.61,-29.74 13.71,-22.68 6.3,8.7 5.78,25.31 10.72,35.81 3.55,7.53 5.75,16.95 8.94,25.06 3.75,9.57 13.11,22.32 13.11,32.23 0,2.71 -7.3,8.25 -10.13,9.55 -6.26,2.86 -14.31,1.92 -20.86,1.19l-1.78 -11.93zm-2837.93 4823.25c-4.66,-1.41 -7.73,-6.45 -11.32,-9.54 -11.77,-10.17 -36.62,4.21 -45.88,-13.13 -7.38,-13.84 5.5,-42.57 17.28,-50.73 23.5,-16.26 40.57,24.02 51.24,36.4 6.27,7.29 16.72,15.56 20.85,24.47 6.96,14.97 -8.75,22.34 -21.45,19.7l-10.72 -7.17zm2740.71 4861.46c71.93,-54.02 56.53,-111.81 -10.72,-162.33 -75.03,-56.36 -40.71,-100.37 -100.1,-155.17 -25,-23.06 -63.74,-80.33 -9.54,-62.06 0,47.26 226.86,125.12 240.72,102.65 49.16,-79.73 122.43,-226.1 203.78,-273.33 70.23,-40.76 140.78,-39.52 194.24,-109.81 8.86,-11.66 41.9,-92.73 21.45,-97.88l-166.83 -77.58c-73.1,-33.98 -99.88,-94.29 -195.44,-94.29 -163.23,0 -262.69,119.31 -418.28,128.9 -29.52,1.82 -23.73,34.62 -71.5,34.62 -56.81,0 -19.41,37.54 -23.83,74 -6.51,53.78 -86.99,51.54 -75.08,107.42 4.59,57.02 -44.22,69.57 -53.62,115.78 -14.69,72.28 -9.54,156.78 -9.54,231.55 0,80.03 -11.94,140.28 -34.56,213.65 1.35,6.03 4.77,18.92 4.77,26.26 40.6,13.68 23.26,61.6 59.59,72.81 36.4,11.22 74.76,18.55 112.01,28.65 31.08,8.42 68.43,18.82 91.76,-10.74 32.68,-41.43 50.31,-41.85 98.91,-33.42 39.02,6.76 76.99,-28.55 112.02,-44.17l29.79 -15.51zm-2979.64 -12915.14c-14.56,-25.92 -12.82,-54.22 -14.3,-82.95 -1.04,-20.05 4.5,-53.5 32.18,-36.41 15.76,9.72 26.53,26.38 33.96,42.97 5.75,12.82 15.17,24.49 21.45,37.6 6.86,14.35 19.44,38.41 18.47,54.31 -1.47,23.86 -71.91,-4.05 -79.84,-7.16l-11.92 -8.36zm377.16 374.19c-14.55,-2.21 -22.98,-38.07 -26.22,-49.53 -5.7,-20.1 0.39,-40.39 20.26,-49.54l51.84 -23.87c16.24,-7.48 26.36,-6.21 40.51,3.58 25.22,17.47 49.01,38.08 75.08,54.91 12.69,8.2 32.9,26.18 20.85,42.96 -10.17,14.15 -24.77,20.13 -40.51,26.86 -21.69,9.29 -34.03,33.78 -58.39,38.19 -34.07,6.16 -46.53,-8.75 -70.31,-31.03l-13.11 -12.53zm803.18 -28.05c0.65,-13.35 15.17,-32.82 29.19,-32.82 11.64,0 19.7,5.46 28.01,13.13 13.72,12.65 -19.82,18.68 -17.28,34.61 1.05,6.64 7.94,16.81 -2.98,18.5 -10.45,1.61 -25.7,-8.42 -32.77,-15.52l-4.17 -17.9zm-1148.76 988.88c-28.96,-54.03 -115.49,9.84 -110.23,-60.27 3.53,-47.15 -58.39,-37.71 -58.39,-94.89 0,-2.32 38.48,-26.48 45.28,-38.8 18.85,-34.19 -1.66,-56.94 34.56,-88.92 58.08,-51.3 148.26,32.96 207.35,42.37 38.92,6.2 133.74,52.31 150.74,90.72 8.27,18.68 5.46,34.24 10.13,53.11 3.99,16.08 57.47,47.5 28.01,53.12 -52.15,9.94 -20.68,94.94 -89.97,78.17 -32.22,-7.79 -66.53,-28.64 -98.31,-28.64 -41.41,0 -75.07,19.26 -118.57,8.35l-0.6 -14.32zm85.2 81.16c-3.22,0 -8.68,-0.55 -11.91,0 -5.42,0.94 -12.27,3.62 -16.09,7.17 -1.11,1.04 -2.3,2.03 -3.58,2.98 -5.32,3.97 -3.2,14.33 0.6,19.1 2.49,3.14 10.58,4.34 14.3,2.38 3.72,-1.96 6.47,-6.26 10.13,-8.35l6.55 -23.28zm-212.71 445.21c-16.27,-39.37 2.57,-56.24 -31.58,-87.13 -14.87,-13.44 -47.15,-64.76 -63.75,-47.15 -19.61,20.82 -46.46,26.34 -65.54,-1.79 -16.45,-24.27 9.1,-40.92 -19.66,-63.85 0,-13.96 21.2,-29.03 25.02,-45.36 5.22,-22.26 9.89,-46.85 10.73,-69.83 0.9,-24.43 3.37,-107.54 -25.62,-108.61 -39.84,-1.48 -40.41,-28.76 -67.33,-54.91 -21.24,-55.18 -84.18,-62.54 -125.72,-94.29 -34.36,-26.27 -28.19,-61.25 -69.71,-90.11 -96.04,-66.74 -79.25,-165.73 -79.25,-266.17 0,-35.83 -2.16,-89.73 -37.54,-107.42 -37.11,-18.54 -64.85,-49.74 -84.6,-85.35 -18.14,-32.69 -69.73,-170.19 -116.79,-161.13 -42.69,8.21 -73.43,76.32 -130.48,79.97 -29.8,1.91 -66.45,-9.55 -73.89,27.45 -7.71,38.3 -50.76,49.47 -73.88,74.01 -15.37,16.33 -86.4,53.14 -84.01,62.06 5.69,21.28 35.17,75.9 60.77,72.21 0.94,-1.62 1.05,-2.01 2.98,-2.38 16.13,-22.63 132.71,-48.22 154.32,-46.55 39.41,3.25 56.61,25.51 58.39,63.26 1.74,37.09 4.77,74.96 4.77,112.19 -1.21,24.03 12.71,52.07 29.2,68.63 13.17,13.21 3.56,25.07 -5.96,35.21 -8.91,9.51 6.56,30.78 11.32,39.39 7.22,13.07 0.07,30.92 5.36,44.16 3.28,8.24 21.12,1.71 23.83,17.91 11.11,66.37 68.07,92.33 120.96,119.95 23.56,12.31 36.14,50.1 60.18,54.31 33.21,5.81 30.38,16.22 30.38,47.74 -47.1,70.91 74.51,139.46 117.98,173.07 22.52,17.4 103.58,83.99 96.52,111.6 -10.65,41.69 -41.18,28.72 -70.9,45.36 -24.31,13.6 -32.52,45.52 -58.99,53.71 -28.98,8.98 -39.27,-12.1 -61.96,-22.68 -34.82,-16.23 -43.9,35.27 -83.42,27.45 -51.51,-10.19 -73.01,2.09 -110.82,37.6 -68.19,84.03 -185.17,130.03 -245.49,224.99 -57.52,90.53 48.13,67.73 71.5,114.59 11.14,22.33 -8.05,46.49 14.9,66.84 23,20.38 73.26,40.89 104.27,42.37 89.77,1.25 147.59,16.46 230.42,31.63 60.91,11.15 56.42,27.45 103.68,-16.71 24.71,-23.1 114.57,-30.36 150.15,-41.78 21.36,-6.86 97.14,-66.97 110.83,-62.06 108.88,39.07 93.16,-47.3 162.06,-58.49 52.99,-8.61 16.3,-144.15 77.46,-185 35.14,-23.48 56.81,-45.52 10.73,-60.88 -47.59,-15.85 7.68,-54.9 -36.94,-54.9l-24.88 -13.13zm-1144.58 -374.78c-34.64,-23.2 -36.65,-97.77 -44.09,-134.28 -7.52,-36.95 -34.71,-90.85 30.38,-93.1 46.11,-1.6 69.61,13.53 112.02,-13.73 32.09,-20.64 66.65,-16.43 97.12,-37.6 46.36,-32.19 123.09,20.44 145.98,65.05 20.42,39.78 16.47,98.4 13.1,142.04 -7.6,98.38 -21.96,131.5 -122.74,158.75 -43.99,11.9 -74,-24.79 -113.2,-28.05 -50.15,-4.16 -82.65,3.52 -114.4,-44.16l-4.17 -14.92zm1399.6 257.21c-15.58,-0.54 -24.35,-20.94 -26.82,-34.61 -5.87,-32.51 31.65,-37.23 50.05,-17.91 8.77,9.2 20.38,19.07 19.67,32.83 -0.71,13.96 -27.59,22.52 -37.54,28.64l-5.36 -8.95zm645.28 150.39c11.57,-28 -2.77,-48.34 34.56,-48.34 22.03,0 33.36,-22.04 33.36,-41.77 0,-31.84 2.73,-89.62 13.71,-119.96 14.89,-41.18 1,-44.81 -40.52,-55.5 -37.6,-9.67 -59.98,-56.26 -64.94,-91.9 -37.91,0 -67.26,22.54 -112.62,14.32 -48.34,-8.75 -67.01,29.84 -122.14,29.84 -91.33,0 -183.52,16.23 -183.52,119.36 0,21.49 -23.26,32.42 -19.66,57.29l10.73 74c34.86,31.68 77.13,29.63 111.42,62.07 43.34,41.02 100.71,78.41 163.25,56.69 29.74,-10.32 54.79,-23.28 86.99,-24.47 31.24,-1.16 66.17,4.78 86.4,-23.87l2.98 -7.76zm290.17 116.38c-4.93,-1.97 -6.22,-4.73 -10.73,-7.16 -15.14,-8.13 -36.22,-11.45 -53.03,-5.38 -7.49,2.71 -23.85,7.88 -23.23,17.31 0.34,5.1 11.22,19.22 14.89,22.68 14.37,13.59 24.44,14.91 42.9,17.9 14.48,2.35 32.67,-3.72 40.52,-16.11l-11.32 -29.24zm-381.93 -486.98c12.27,5.64 67.75,-4.9 61.97,-25.07 -3.97,-13.83 -12.13,-25.57 -16.69,-38.19 -3.33,-9.25 -10.86,-27.55 -19.66,-32.83 -28.04,-16.8 -16.09,16.57 -16.09,31.63 0,21.35 -16.95,36.41 -15.49,59.09l5.96 5.37zm1089.17 692.87c-60.1,-13.97 -168.59,-65.49 -57.2,-106.83 16.22,-6.02 59.89,-24.61 69.12,-39.38 6.04,-9.68 6.32,-36.65 16.09,-38.79 43.19,-9.46 66.48,11.48 97.12,-42.38 18.59,-32.66 24.54,-66.69 63.75,-85.34 37.95,-18.06 96.35,-66.84 135.85,-66.84 18.7,0 37.57,12.2 54.82,17.31 18.53,5.5 40.59,-15.96 55.41,-9.55 2.46,10.12 23.86,24.21 20.85,34.02 -8.81,28.61 -70.31,93.7 -93.54,116.97 -28.28,28.35 -54.23,12.03 -72.1,54.31 -11.43,27.02 -34.4,41.06 -41.71,66.84 -13.47,47.53 -37.65,81.43 -94.14,76.39 -49.65,-4.42 -77.3,34.77 -126.91,26.85l-27.41 -3.58zm-163.85 674.37c-31.97,-9.74 -64.45,-24.54 -96.52,-35.21 -8.05,-2.67 -26.17,-12.71 -23.24,-23.87 1.03,-3.91 27.47,-4.12 32.17,-4.77 18.27,-2.54 50.1,-28.79 66.74,-22.68 12.37,4.53 20.46,13.04 32.17,17.9 21.54,8.93 44.03,6.15 51.84,31.63 9.8,31.99 -12.26,32.76 -41.11,34.02l-22.05 2.98zm-1234.55 -112.19c-15.21,-39.9 11.03,-47.16 26.21,-77.59 10,-20.07 2.74,-40.44 7.75,-60.87 4.65,-19 26.01,0.17 39.92,-2.98 14.23,-3.23 33.01,-26.86 45.28,-25.66 1.19,0.11 11.85,22.12 22.05,25.66 21.41,7.43 76.15,26.02 86.39,46.55 8.93,17.93 -23.03,51.43 -35.15,62.66 -22.78,21.08 -33.92,67.88 -64.35,77.58 -17.2,5.49 -28.47,7.77 -43.5,-4.18 -17.79,-14.13 -38.08,-23.15 -59.58,-31.03l-25.02 -10.14z"/>
  <path class="fil3 str2" d="M16664.2 18595.78l2740.18 0 0 1592.9 -2740.18 0 0 -1592.9z"/>
  <path class="fil4" d="M19583.11 20095.78c0,-17.45 4.47,-34.48 13.46,-51.13 8.93,-16.61 21.77,-29.59 38.43,-38.86 16.69,-9.26 34.1,-13.92 52.16,-13.92 17.92,0 35.18,4.56 51.69,13.74 16.56,9.12 29.4,21.92 38.53,38.43 9.17,16.51 13.73,33.77 13.73,51.74 0,18.01 -4.56,35.27 -13.73,51.78 -9.13,16.51 -21.97,29.35 -38.53,38.53 -16.51,9.17 -33.77,13.78 -51.69,13.78 -18.06,0 -35.47,-4.66 -52.16,-13.97 -16.66,-9.36 -29.5,-22.34 -38.43,-38.95 -8.99,-16.65 -13.46,-33.68 -13.46,-51.17zm17.22 0c0,14.62 3.76,28.88 11.24,42.7 7.48,13.83 18.2,24.65 32.13,32.46 13.92,7.81 28.41,11.71 43.46,11.71 15,0 29.35,-3.85 43.08,-11.52 13.74,-7.67 24.46,-18.39 32.13,-32.17 7.67,-13.79 11.52,-28.18 11.52,-43.18 0,-14.96 -3.85,-29.36 -11.52,-43.14 -7.67,-13.78 -18.39,-24.5 -32.13,-32.12 -13.73,-7.62 -28.08,-11.43 -43.08,-11.43 -15.05,0 -29.54,3.9 -43.46,11.66 -13.93,7.76 -24.65,18.58 -32.13,32.46 -7.48,13.87 -11.24,28.08 -11.24,42.57zm103.57 -33.35l5.08 -16.94c11.53,2.78 20.7,8.61 27.52,17.55 6.87,8.98 10.3,19.85 10.3,32.59 0,16.19 -5.22,29.31 -15.71,39.42 -10.49,10.11 -24.98,15.15 -43.55,15.15 -12.14,0 -22.68,-2.31 -31.61,-6.92 -8.99,-4.56 -15.71,-11.15 -20.28,-19.61 -4.56,-8.52 -6.82,-18.25 -6.82,-29.16 0,-12.23 2.92,-22.39 8.8,-30.48 5.88,-8.09 13.88,-13.6 23.94,-16.56l4.23 16.37c-6.91,2.77 -12.23,6.82 -15.89,12.23 -3.72,5.41 -5.55,11.71 -5.55,19 0,10.58 3.76,19.33 11.28,26.2 7.53,6.87 18.35,10.3 32.37,10.3 14.06,0 24.69,-3.24 31.89,-9.74 7.19,-6.49 10.81,-14.86 10.81,-25.16 0,-8.28 -2.39,-15.57 -7.24,-21.83 -4.8,-6.25 -11.33,-10.39 -19.57,-12.41z"/>
  <path id="1" class="fil4" d="M19788.57 19800.62l-18.58 0c14.44,9.27 21.68,22.91 21.68,40.92 0,11.67 -3.19,22.39 -9.64,32.13 -6.4,9.78 -15.38,17.35 -26.86,22.76 -11.52,5.37 -24.74,8.05 -39.69,8.05 -14.59,0 -27.8,-2.45 -39.7,-7.29 -11.86,-4.9 -20.98,-12.19 -27.29,-21.92 -6.35,-9.69 -9.5,-20.61 -9.5,-32.6 0,-8.84 1.88,-16.7 5.6,-23.56 3.72,-6.87 8.61,-12.47 14.58,-16.8l-72.67 0 0 -24.83 202.07 0 0 23.14zm-73.05 78.46c18.72,0 32.69,-3.95 41.96,-11.9 9.26,-7.91 13.87,-17.27 13.87,-28.04 0,-10.86 -4.42,-20.08 -13.26,-27.7 -8.84,-7.57 -22.34,-11.38 -40.5,-11.38 -19.94,0 -34.62,3.85 -43.98,11.61 -9.36,7.72 -14.01,17.27 -14.01,28.6 0,11.06 4.46,20.27 13.45,27.71 8.98,7.38 23.14,11.1 42.47,11.1z"/>
  <path id="2" class="fil4" d="M19727.89 19748.08l-24.83 0 0 -76.76 24.83 0 0 76.76z"/>
  <path id="3" class="fil4" d="M19788.57 19644.22l-146.47 0 0 -22.29 20.69 0c-7.15,-4.56 -12.93,-10.68 -17.26,-18.3 -4.37,-7.62 -6.54,-16.27 -6.54,-26.01 0,-10.82 2.26,-19.71 6.73,-26.62 4.52,-6.92 10.77,-11.81 18.86,-14.63 -17.07,-11.67 -25.59,-26.77 -25.59,-45.39 0,-14.58 4,-25.83 12.04,-33.63 8.05,-7.86 20.42,-11.81 37.12,-11.81l100.42 0 0 24.84 -92.19 0c-9.88,0 -17.03,0.84 -21.4,2.44 -4.38,1.6 -7.86,4.52 -10.54,8.8 -2.68,4.23 -4,9.22 -4,14.91 0,10.35 3.44,18.91 10.26,25.73 6.86,6.82 17.82,10.2 32.87,10.2l85 0 0 24.84 -95.06 0c-11.01,0 -19.29,2.02 -24.79,6.07 -5.5,4.04 -8.28,10.67 -8.28,19.85 0,6.96 1.84,13.4 5.51,19.33 3.66,5.93 9.03,10.21 16.13,12.89 7.05,2.63 17.26,3.95 30.57,3.95l75.92 0 0 24.83z"/>
  <path id="4" class="fil4" d="M19770.23 19313.46c7.85,9.22 13.35,18.11 16.6,26.62 3.25,8.52 4.84,17.64 4.84,27.43 0,16.08 -3.9,28.45 -11.75,37.11 -7.81,8.65 -17.83,12.98 -30.01,12.98 -7.15,0 -13.69,-1.65 -19.62,-4.89 -5.93,-3.29 -10.63,-7.57 -14.2,-12.84 -3.58,-5.32 -6.31,-11.24 -8.14,-17.88 -1.27,-4.89 -2.49,-12.27 -3.72,-22.1 -2.35,-20.04 -5.22,-34.86 -8.51,-44.31 -3.39,-0.1 -5.55,-0.14 -6.44,-0.14 -10.07,0 -17.17,2.35 -21.31,7.05 -5.6,6.35 -8.37,15.81 -8.37,28.32 0,11.71 2.07,20.36 6.16,25.92 4.09,5.59 11.38,9.68 21.78,12.37l-3.39 24.27c-10.4,-2.21 -18.82,-5.84 -25.21,-10.92 -6.4,-5.08 -11.29,-12.41 -14.77,-22.01 -3.44,-9.55 -5.18,-20.7 -5.18,-33.3 0,-12.51 1.46,-22.72 4.42,-30.57 2.97,-7.81 6.64,-13.6 11.11,-17.27 4.46,-3.67 10.11,-6.25 16.93,-7.76 4.23,-0.8 11.85,-1.22 22.81,-1.22l32.93 0c23,0 37.53,-0.52 43.69,-1.55 6.17,-0.99 12.05,-3.06 17.69,-6.07l0 25.96c-5.22,2.5 -11.34,4.1 -18.34,4.8zm-55.04 1.98c3.67,9.03 6.78,22.57 9.32,40.64 1.45,10.25 3.1,17.49 4.93,21.73 1.84,4.23 4.52,7.48 8,9.78 3.53,2.31 7.43,3.48 11.76,3.48 6.54,0 12.04,-2.49 16.42,-7.52 4.37,-5.04 6.58,-12.38 6.58,-22.02 0,-9.55 -2.07,-18.06 -6.25,-25.54 -4.14,-7.43 -9.84,-12.93 -17.03,-16.41 -5.6,-2.69 -13.83,-4 -24.7,-4l-9.03 -0.14z"/>
  <path id="5" class="fil4" d="M19844.73 19252.17l-202.63 0 0 -22.57 19.24 0c-7.44,-5.32 -13.03,-11.34 -16.75,-18.07 -3.72,-6.68 -5.6,-14.81 -5.6,-24.36 0,-12.51 3.2,-23.52 9.65,-33.07 6.39,-9.55 15.47,-16.74 27.14,-21.63 11.71,-4.85 24.5,-7.3 38.47,-7.3 14.91,0 28.37,2.69 40.36,8.05 11.95,5.36 21.12,13.17 27.52,23.42 6.35,10.21 9.54,20.98 9.54,32.27 0,8.28 -1.74,15.71 -5.22,22.25 -3.48,6.58 -7.85,11.94 -13.17,16.18l71.45 0 0 24.83zm-128.5 -22.57c18.77,0 32.69,-3.81 41.67,-11.39 8.99,-7.62 13.45,-16.84 13.45,-27.65 0,-11.01 -4.65,-20.42 -13.97,-28.23 -9.31,-7.85 -23.7,-11.76 -43.22,-11.76 -18.63,0 -32.55,3.81 -41.82,11.48 -9.26,7.67 -13.87,16.79 -13.87,27.42 0,10.54 4.94,19.85 14.77,27.94 9.87,8.14 24.17,12.19 42.99,12.19z"/>
  <path id="6" class="fil4" d="M19744.83 19105.09l-3.96 -24.55c9.84,-1.37 17.36,-5.22 22.63,-11.53 5.22,-6.3 7.85,-15.14 7.85,-26.43 0,-11.43 -2.3,-19.9 -6.96,-25.45 -4.61,-5.5 -10.06,-8.28 -16.32,-8.28 -5.6,0 -10.02,2.5 -13.22,7.44 -2.21,3.48 -4.98,11.94 -8.42,25.4 -4.56,18.15 -8.51,30.71 -11.85,37.77 -3.39,7 -7.99,12.32 -13.92,15.94 -5.88,3.62 -12.42,5.46 -19.57,5.46 -6.54,0 -12.56,-1.51 -18.11,-4.47 -5.55,-3.01 -10.16,-7.06 -13.83,-12.18 -2.82,-3.86 -5.22,-9.13 -7.19,-15.76 -1.98,-6.68 -2.97,-13.78 -2.97,-21.4 0,-11.48 1.65,-21.54 4.99,-30.2 3.29,-8.7 7.81,-15.1 13.45,-19.24 5.69,-4.09 13.27,-6.96 22.77,-8.51l3.38 24.27c-7.62,1.08 -13.59,4.28 -17.87,9.55 -4.28,5.27 -6.4,12.7 -6.4,22.34 0,11.34 1.88,19.47 5.65,24.32 3.76,4.84 8.18,7.29 13.21,7.29 3.2,0 6.12,-0.99 8.71,-3.01 2.63,-2.02 4.84,-5.18 6.58,-9.5 0.94,-2.5 3.06,-9.74 6.35,-21.87 4.66,-17.5 8.52,-29.73 11.48,-36.69 2.96,-6.96 7.34,-12.42 12.98,-16.37 5.69,-4 12.75,-5.98 21.21,-5.98 8.24,0 16,2.4 23.29,7.25 7.29,4.84 12.93,11.8 16.93,20.88 4,9.13 5.97,19.43 5.97,30.91 0,19 -3.95,33.53 -11.8,43.5 -7.9,9.98 -19.57,16.33 -35.04,19.1z"/>
  <path id="7" class="fil4" d="M19788.57 18947.05l-28.22 0 0 -28.22 28.22 0 0 28.22z"/>
  <path id="8" class="fil4" d="M19734.95 18780.02l3.38 -24.27c16.7,2.68 29.73,9.45 39.19,20.41 9.45,10.96 14.15,24.46 14.15,40.41 0,19.99 -6.53,36.08 -19.61,48.21 -13.08,12.18 -31.8,18.25 -56.16,18.25 -15.81,0 -29.59,-2.63 -41.39,-7.85 -11.86,-5.22 -20.75,-13.17 -26.63,-23.9 -5.92,-10.68 -8.89,-22.29 -8.89,-34.9 0,-15.85 4,-28.88 12.04,-38.95 8.05,-10.11 19.48,-16.6 34.25,-19.42l3.67 23.99c-9.83,2.3 -17.22,6.35 -22.2,12.23 -4.94,5.83 -7.44,12.88 -7.44,21.16 0,12.51 4.47,22.67 13.41,30.53 8.98,7.81 23.09,11.71 42.47,11.71 19.66,0 33.92,-3.76 42.81,-11.29 8.89,-7.57 13.35,-17.4 13.35,-29.49 0,-9.78 -2.96,-17.92 -8.93,-24.41 -5.93,-6.54 -15.1,-10.68 -27.47,-12.42z"/>
  <path id="9" class="fil4" d="M19715.33 18743.9c-27.04,0 -47.08,-7.53 -60.11,-22.63 -10.82,-12.56 -16.23,-27.94 -16.23,-46.05 0,-20.08 6.59,-36.54 19.76,-49.34 13.12,-12.75 31.33,-19.14 54.51,-19.14 18.82,0 33.59,2.82 44.36,8.46 10.77,5.65 19.14,13.88 25.12,24.7 5.97,10.77 8.93,22.58 8.93,35.32 0,20.51 -6.53,37.07 -19.66,49.72 -13.12,12.65 -32.03,18.96 -56.68,18.96zm0.05 -25.4c18.72,0 32.74,-4.1 42,-12.28 9.32,-8.23 13.97,-18.53 13.97,-31 0,-12.32 -4.65,-22.57 -14.01,-30.81 -9.36,-8.18 -23.61,-12.27 -42.76,-12.27 -18.06,0 -31.75,4.14 -41.01,12.37 -9.32,8.23 -13.97,18.48 -13.97,30.71 0,12.47 4.61,22.77 13.87,31 9.27,8.18 23.24,12.28 41.91,12.28z"/>
  <path id="10" class="fil4" d="M19788.57 18577.62l-146.47 0 0 -22.29 20.69 0c-7.15,-4.56 -12.93,-10.68 -17.26,-18.3 -4.37,-7.62 -6.54,-16.27 -6.54,-26.01 0,-10.82 2.26,-19.71 6.73,-26.62 4.52,-6.92 10.77,-11.81 18.86,-14.63 -17.07,-11.67 -25.59,-26.77 -25.59,-45.39 0,-14.58 4,-25.83 12.04,-33.63 8.05,-7.86 20.42,-11.81 37.12,-11.81l100.42 0 0 24.84 -92.19 0c-9.88,0 -17.03,0.84 -21.4,2.44 -4.38,1.6 -7.86,4.52 -10.54,8.8 -2.68,4.23 -4,9.22 -4,14.91 0,10.35 3.44,18.91 10.26,25.73 6.86,6.82 17.82,10.2 32.87,10.2l85 0 0 24.84 -95.06 0c-11.01,0 -19.29,2.02 -24.79,6.07 -5.5,4.04 -8.28,10.67 -8.28,19.85 0,6.96 1.84,13.4 5.51,19.33 3.66,5.93 9.03,10.21 16.13,12.89 7.05,2.63 17.26,3.95 30.57,3.95l75.92 0 0 24.83z"/>
  <path class="fil2 str1" d="M5020.25 1000l0 3405.13 -4021.62 0"/>
  <g id="_2020171097152">
   <path class="fil5 str3" d="M16792.67 19189.14l499.25 0 0 99.16 -499.25 0 0 -99.16z"/>
   <path class="fil6 str3" d="M17291.92 19189.14l499.26 0 0 99.16 -499.26 0 0 -99.16z"/>
   <path class="fil5 str3" d="M17791.18 19189.14l499.25 0 0 99.16 -499.25 0 0 -99.16z"/>
   <path class="fil6 str3" d="M18290.55 19189.14l499.25 0 0 99.16 -499.25 0 0 -99.16z"/>
   <path class="fil5 str3" d="M18789.82 19189.14l499.25 0 0 99.16 -499.25 0 0 -99.16z"/>
   <path class="fil6 str3" d="M18391.43 19488.08l798.5 0 0 99.16 -798.5 0 0 -99.16z"/>
   <path class="fil5 str3" d="M17592.92 19488.08l798.51 0 0 99.16 -798.51 0 0 -99.16z"/>
   <path class="fil6 str3" d="M16794.42 19488.08l798.51 0 0 99.16 -798.51 0 0 -99.16z"/>
   <path class="fil4" d="M17557.69 18781.55l57.09 -27.52 5.71 0 0 197.2c0,13.12 0.53,21.35 1.64,24.58 1.12,3.18 3.36,5.71 6.82,7.41 3.47,1.71 10.53,2.7 21.17,2.94l0 6.35 -88.19 0 0 -6.35c11.05,-0.24 18.16,-1.18 21.34,-2.88 3.23,-1.65 5.47,-3.88 6.76,-6.7 1.24,-2.83 1.88,-11.29 1.88,-25.35l0 -126.29c0,-16.99 -0.59,-27.93 -1.7,-32.75 -0.83,-3.7 -2.3,-6.41 -4.41,-8.11 -2.18,-1.71 -4.71,-2.59 -7.71,-2.59 -4.29,0 -10.23,1.76 -17.81,5.35l-2.59 -5.29z"/>
   <path id="1" class="fil4" d="M18192 18747.33l0 157.16 39.98 -36.63c8.52,-7.82 13.46,-12.76 14.81,-14.82 0.95,-1.41 1.42,-2.76 1.42,-4.17 0,-2.29 -1,-4.23 -2.89,-5.94 -1.88,-1.65 -4.99,-2.59 -9.4,-2.82l0 -5.65 68.61 0 0 5.65c-9.35,0.23 -17.17,1.7 -23.4,4.35 -6.23,2.7 -13.05,7.47 -20.52,14.29l-40.63 37.22 40.34 51.33c11.29,14.05 18.81,23.04 22.58,26.98 5.58,5.24 10.4,8.65 14.58,10.17 2.94,1.12 7.99,1.71 15.17,1.71l0 6.35 -76.73 0 0 -6.35c4.41,-0.12 7.35,-0.76 8.88,-1.94 1.58,-1.24 2.35,-2.88 2.35,-5.06 0,-2.64 -2.3,-6.88 -6.88,-12.7l-48.27 -61.79 0 52.21c0,10.23 0.7,16.93 2.11,20.17 1.47,3.17 3.47,5.46 6.12,6.88 2.64,1.35 8.35,2.11 17.17,2.23l0 6.35 -80.08 0 0 -6.35c7.99,0 14.05,-1 18.05,-2.94 2.41,-1.23 4.23,-3.17 5.46,-5.76 1.71,-3.76 2.59,-10.29 2.59,-19.52l0 -143.94c0,-18.05 -0.41,-29.1 -1.18,-33.16 -0.82,-4.05 -2.11,-6.82 -3.99,-8.35 -1.83,-1.58 -4.24,-2.35 -7.18,-2.35 -2.41,0 -6.05,1 -10.82,2.94l-2.93 -6.35 46.74 -19.4 7.94 0z"/>
   <path id="2" class="fil4" d="M18368.74 18863.63c11.41,-11.53 18.17,-18.17 20.22,-19.93 5.12,-4.36 10.65,-7.77 16.59,-10.18 5.93,-2.41 11.81,-3.64 17.63,-3.64 9.88,0 18.29,2.88 25.4,8.64 7.06,5.76 11.82,14.11 14.17,25.11 11.88,-13.88 21.88,-22.93 30.05,-27.28 8.17,-4.3 16.58,-6.47 25.22,-6.47 8.35,0 15.82,2.17 22.35,6.47 6.46,4.29 11.64,11.34 15.4,21.16 2.53,6.65 3.82,17.11 3.82,31.4l0 67.97c0,9.82 0.71,16.58 2.18,20.23 1.12,2.46 3.23,4.64 6.23,6.4 3.06,1.77 8,2.65 14.88,2.65l0 6.35 -77.26 0 0 -6.35 3.29 0c6.7,0 11.99,-1.29 15.76,-3.94 2.64,-1.82 4.52,-4.76 5.64,-8.76 0.47,-1.94 0.71,-7.47 0.71,-16.58l0 -67.91c0,-12.88 -1.53,-21.93 -4.65,-27.22 -4.52,-7.35 -11.7,-11.06 -21.63,-11.06 -6.06,0 -12.23,1.53 -18.41,4.59 -6.11,3 -13.58,8.7 -22.34,16.93l-0.35 1.94 0.7 7.41 0 75.32c0,10.7 0.59,17.4 1.77,20.05 1.23,2.59 3.46,4.82 6.76,6.58 3.29,1.77 8.93,2.65 16.87,2.65l0 6.35 -79.37 0 0 -6.35c8.64,0 14.58,-1 17.81,-3.06 3.24,-2.06 5.47,-5.17 6.7,-9.29 0.59,-1.94 0.89,-7.58 0.89,-16.93l0 -67.91c0,-12.88 -1.88,-22.17 -5.65,-27.87 -5.05,-7.41 -12.05,-11.11 -21.11,-11.11 -6.17,0 -12.28,1.7 -18.34,5.05 -9.47,5.06 -16.82,10.82 -21.93,17.17l0 84.67c0,10.29 0.7,16.93 2.12,20.05 1.41,3.06 3.52,5.35 6.35,6.94 2.76,1.53 8.4,2.29 16.93,2.29l0 6.35 -77.97 0 0 -6.35c7.24,0 12.29,-0.76 15.17,-2.29 2.89,-1.59 5.06,-4 6.59,-7.41 1.47,-3.35 2.23,-9.88 2.23,-19.58l0 -60.33c0,-17.28 -0.53,-28.45 -1.53,-33.51 -0.82,-3.82 -2.05,-6.41 -3.82,-7.82 -1.7,-1.47 -4.05,-2.18 -6.99,-2.18 -3.24,0 -7.06,0.89 -11.53,2.59l-2.58 -6.35 47.62 -19.4 7.41 0 0 33.75z"/>
   <path id="3" class="fil4" d="M17705.86 18876.92c0,-26.64 4,-49.51 12.05,-68.74 8.06,-19.22 18.7,-33.57 32.05,-42.98 10.29,-7.47 20.99,-11.17 31.98,-11.17 17.94,0 33.99,9.11 48.22,27.34 17.81,22.64 26.69,53.27 26.69,91.96 0,27.05 -3.88,50.09 -11.7,69.03 -7.82,18.93 -17.76,32.63 -29.87,41.21 -12.11,8.53 -23.81,12.82 -35.04,12.82 -22.29,0 -40.81,-13.11 -55.62,-39.39 -12.53,-22.17 -18.76,-48.86 -18.76,-80.08zm33.87 4.23c0,32.1 3.94,58.33 11.82,78.67 6.52,17.11 16.28,25.63 29.22,25.63 6.17,0 12.58,-2.76 19.22,-8.34 6.65,-5.59 11.65,-14.88 15.11,-27.99 5.24,-19.7 7.88,-47.57 7.88,-83.43 0,-26.64 -2.76,-48.86 -8.23,-66.62 -4.11,-13.23 -9.46,-22.58 -15.99,-28.05 -4.65,-3.82 -10.35,-5.7 -16.99,-5.7 -7.76,0 -14.7,3.53 -20.76,10.52 -8.23,9.53 -13.87,24.46 -16.81,44.92 -3,20.41 -4.47,40.52 -4.47,60.39z"/>
   <path id="4" class="fil4" d="M17882.25 18876.92c0,-26.64 4,-49.51 12.05,-68.74 8.06,-19.22 18.7,-33.57 32.05,-42.98 10.29,-7.47 20.99,-11.17 31.98,-11.17 17.94,0 33.99,9.11 48.22,27.34 17.81,22.64 26.69,53.27 26.69,91.96 0,27.05 -3.88,50.09 -11.7,69.03 -7.82,18.93 -17.76,32.63 -29.87,41.21 -12.11,8.53 -23.81,12.82 -35.04,12.82 -22.29,0 -40.81,-13.11 -55.62,-39.39 -12.53,-22.17 -18.76,-48.86 -18.76,-80.08zm33.87 4.23c0,32.1 3.94,58.33 11.82,78.67 6.52,17.11 16.28,25.63 29.22,25.63 6.17,0 12.58,-2.76 19.22,-8.34 6.65,-5.59 11.65,-14.88 15.11,-27.99 5.24,-19.7 7.88,-47.57 7.88,-83.43 0,-26.64 -2.76,-48.86 -8.23,-66.62 -4.11,-13.23 -9.46,-22.58 -15.99,-28.05 -4.65,-3.82 -10.35,-5.7 -16.99,-5.7 -7.76,0 -14.7,3.53 -20.76,10.52 -8.23,9.53 -13.87,24.46 -16.81,44.92 -3,20.41 -4.47,40.52 -4.47,60.39z"/>
   <path class="fil4" d="M17725.47 19723.91l0 6.7c-15.12,1.47 -27.46,4.47 -37.05,9 -9.58,4.53 -19.05,11.41 -28.34,20.7 -9.35,9.23 -17.11,19.58 -23.22,30.92 -6.12,11.41 -11.23,24.93 -15.35,40.57 16.47,-11.23 32.99,-16.87 49.63,-16.87 15.93,0 29.69,6.41 41.39,19.28 11.7,12.82 17.52,29.34 17.52,49.51 0,19.46 -5.88,37.28 -17.7,53.33 -14.23,19.46 -33.04,29.22 -56.44,29.22 -15.93,0 -29.52,-5.29 -40.63,-15.82 -21.81,-20.57 -32.69,-47.21 -32.69,-79.9 0,-20.87 4.17,-40.75 12.58,-59.56 8.35,-18.82 20.35,-35.51 35.87,-50.1 15.58,-14.52 30.45,-24.34 44.68,-29.39 14.23,-5.06 27.46,-7.59 39.75,-7.59l10 0zm-106.9 120.48c-2.11,15.52 -3.17,28.04 -3.17,37.57 0,11.05 2.06,22.99 6.11,35.92 4.06,12.94 10.12,23.17 18.11,30.75 5.82,5.41 12.94,8.12 21.29,8.12 9.93,0 18.87,-4.71 26.69,-14.12 7.82,-9.46 11.76,-22.87 11.76,-40.33 0,-19.64 -3.88,-36.63 -11.64,-51.04 -7.82,-14.34 -18.82,-21.52 -33.1,-21.52 -4.36,0 -9.06,0.95 -14,2.77 -5,1.82 -12.35,5.82 -22.05,11.88z"/>
   <path id="1" class="fil4" d="M17756.51 19846.8c0,-26.64 4,-49.51 12.05,-68.74 8.06,-19.22 18.7,-33.57 32.05,-42.98 10.29,-7.47 20.99,-11.17 31.98,-11.17 17.94,0 33.99,9.11 48.22,27.34 17.81,22.64 26.69,53.27 26.69,91.96 0,27.05 -3.88,50.09 -11.7,69.03 -7.82,18.93 -17.76,32.63 -29.87,41.21 -12.11,8.53 -23.81,12.82 -35.04,12.82 -22.29,0 -40.81,-13.11 -55.62,-39.39 -12.53,-22.17 -18.76,-48.86 -18.76,-80.08zm33.87 4.23c0,32.1 3.94,58.33 11.82,78.67 6.52,17.11 16.28,25.63 29.22,25.63 6.17,0 12.58,-2.76 19.22,-8.34 6.65,-5.59 11.65,-14.88 15.11,-27.99 5.24,-19.7 7.88,-47.57 7.88,-83.43 0,-26.64 -2.76,-48.86 -8.23,-66.62 -4.11,-13.23 -9.46,-22.58 -15.99,-28.05 -4.65,-3.82 -10.35,-5.7 -16.99,-5.7 -7.76,0 -14.7,3.53 -20.76,10.52 -8.23,9.53 -13.87,24.46 -16.81,44.92 -3,20.41 -4.47,40.52 -4.47,60.39z"/>
   <path id="2" class="fil4" d="M18066.61 19833.51c11.41,-11.53 18.17,-18.17 20.22,-19.93 5.12,-4.36 10.65,-7.77 16.59,-10.18 5.93,-2.41 11.81,-3.64 17.63,-3.64 9.88,0 18.29,2.88 25.4,8.64 7.06,5.76 11.82,14.11 14.17,25.11 11.88,-13.88 21.88,-22.93 30.05,-27.28 8.17,-4.3 16.58,-6.47 25.22,-6.47 8.35,0 15.82,2.17 22.35,6.47 6.46,4.29 11.64,11.34 15.4,21.16 2.53,6.65 3.82,17.11 3.82,31.4l0 67.97c0,9.82 0.71,16.58 2.18,20.23 1.12,2.46 3.23,4.64 6.23,6.4 3.06,1.77 8,2.65 14.88,2.65l0 6.35 -77.26 0 0 -6.35 3.29 0c6.7,0 11.99,-1.29 15.76,-3.94 2.64,-1.82 4.52,-4.76 5.64,-8.76 0.47,-1.94 0.71,-7.47 0.71,-16.58l0 -67.91c0,-12.88 -1.53,-21.93 -4.65,-27.22 -4.52,-7.35 -11.7,-11.06 -21.63,-11.06 -6.06,0 -12.23,1.53 -18.41,4.59 -6.11,3 -13.58,8.7 -22.34,16.93l-0.35 1.94 0.7 7.41 0 75.32c0,10.7 0.59,17.4 1.77,20.05 1.23,2.59 3.46,4.82 6.76,6.58 3.29,1.77 8.93,2.65 16.87,2.65l0 6.35 -79.37 0 0 -6.35c8.64,0 14.58,-1 17.81,-3.06 3.24,-2.06 5.47,-5.17 6.7,-9.29 0.59,-1.94 0.89,-7.58 0.89,-16.93l0 -67.91c0,-12.88 -1.88,-22.17 -5.65,-27.87 -5.05,-7.41 -12.05,-11.11 -21.11,-11.11 -6.17,0 -12.28,1.7 -18.34,5.05 -9.47,5.06 -16.82,10.82 -21.93,17.17l0 84.67c0,10.29 0.7,16.93 2.12,20.05 1.41,3.06 3.52,5.35 6.35,6.94 2.76,1.53 8.4,2.29 16.93,2.29l0 6.35 -77.97 0 0 -6.35c7.24,0 12.29,-0.76 15.17,-2.29 2.89,-1.59 5.06,-4 6.59,-7.41 1.47,-3.35 2.23,-9.88 2.23,-19.58l0 -60.33c0,-17.28 -0.53,-28.45 -1.53,-33.51 -0.82,-3.82 -2.05,-6.41 -3.82,-7.82 -1.7,-1.47 -4.05,-2.18 -6.99,-2.18 -3.24,0 -7.06,0.89 -11.53,2.59l-2.58 -6.35 47.62 -19.4 7.41 0 0 33.75z"/>
   <path id="3" class="fil4" d="M18334.25 19717.21c4.76,0 8.88,1.7 12.29,5.05 3.35,3.41 5.05,7.53 5.05,12.29 0,4.82 -1.7,9 -5.05,12.41 -3.41,3.47 -7.53,5.17 -12.29,5.17 -4.82,0 -9,-1.7 -12.41,-5.17 -3.47,-3.41 -5.17,-7.59 -5.17,-12.41 0,-4.76 1.7,-8.88 5.05,-12.29 3.41,-3.35 7.59,-5.05 12.53,-5.05zm14.17 82.55l0 127c0,9.82 0.7,16.34 2.17,19.58 1.41,3.29 3.53,5.7 6.35,7.29 2.82,1.59 8,2.41 15.47,2.41l0 6.35 -76.56 0 0 -6.35c7.65,0 12.82,-0.76 15.41,-2.23 2.64,-1.47 4.7,-3.94 6.29,-7.35 1.53,-3.41 2.29,-10 2.29,-19.7l0 -61.03c0,-16.99 -0.53,-27.99 -1.53,-33.05 -0.82,-3.64 -2.05,-6.17 -3.82,-7.58 -1.7,-1.47 -4.06,-2.18 -7,-2.18 -3.23,0 -7.11,0.89 -11.7,2.59l-2.41 -6.35 47.45 -19.4 7.59 0z"/>
  </g>
  <rect class="fil2 str1" x="1000" y="1000" width="19000" height="19419.12"/>
  <g id="_2020171092832">
   <path class="fil3 str2" d="M15709.94 18592.36l815.93 0 0 1592.89 -815.93 0 0 -1592.89z"/>
   <path class="fil7" d="M16058.04 19028.49c-0.92,3.32 -1.63,6.35 -2.07,9.15 -0.44,2.79 -0.65,5.18 -0.65,7.22 0,5.59 1.8,9.56 5.29,11.89 3.49,2.33 9.55,3.49 18.05,3.49l4.15 0 -4.96 22.72 -78.17 0 5.29 -22.72 2.89 0c7.36,0 12.82,-1.51 16.48,-4.54 3.6,-2.97 6.32,-8.39 8.12,-16.14l37.59 -153.79c0.6,-2.74 1.14,-5.54 1.52,-8.45 0.33,-2.91 0.55,-5.77 0.55,-8.62 0,-5.36 -1.96,-9.15 -5.95,-11.36 -3.92,-2.22 -10.69,-3.32 -20.23,-3.32l-3.06 0 5.29 -22.72 72.33 0 62.14 183.5 31.31 -129.03c1.08,-4.2 1.85,-7.63 2.34,-10.31 0.49,-2.68 0.71,-4.72 0.71,-6.06 0,-5.6 -1.8,-9.56 -5.35,-11.89 -3.6,-2.33 -9.71,-3.49 -18.32,-3.49l-4.15 0 4.96 -22.72 78.5 0 -5.62 22.72 -2.84 0c-7.37,0 -12.87,1.51 -16.47,4.54 -3.66,2.97 -6.33,8.33 -8.18,15.96l-50.68 208.44 -21.54 0 -72.06 -209.48 -37.21 155.01z"/>
   <path class="fil2 str4" d="M16118.73 20052.05l0 -769.27"/>
   <path class="fil2 str4" d="M15836.68 19776l563.14 0"/>
   <path class="fil2 str4" d="M15973.83 19915.99l294.22 -286.81"/>
   <path class="fil2 str4" d="M15970.69 19628.94l297.98 288.85"/>
   <path class="fil2 str4" d="M16118.59 19285.51l-95.47 118.01"/>
   <path class="fil2 str4" d="M16119.21 19285.47l87.89 118.05"/>
  </g>
  <g id="_2020171085248">
   <path class="fil3 str2" d="M14947.94 19711.55l0 473.7 -2309.37 0 0 -473.7 2309.37 0z"/>
   <path class="fil7" d="M13715.91 20050.02l0 -202.07 40.07 0 47.79 143.04c4.42,13.31 7.62,23.28 9.64,29.91 2.31,-7.33 5.93,-18.15 10.82,-32.4l48.64 -140.55 35.79 0 0 202.07 -25.68 0 0 -169.05 -58.98 169.05 -24.09 0 -58.32 -172.15 0 172.15 -25.68 0z"/>
   <path id="1" class="fil7" d="M14048.36 20002.61l25.68 3.38c-3.99,14.91 -11.47,26.53 -22.39,34.76 -10.91,8.24 -24.83,12.37 -41.81,12.37 -21.36,0 -38.29,-6.58 -50.8,-19.75 -12.51,-13.12 -18.77,-31.61 -18.77,-55.36 0,-24.56 6.31,-43.65 18.96,-57.2 12.65,-13.59 29.07,-20.37 49.25,-20.37 19.52,0 35.46,6.64 47.83,19.95 12.37,13.31 18.58,32.03 18.58,56.16 0,1.46 -0.05,3.67 -0.14,6.58l-109.08 0c0.94,16.04 5.46,28.37 13.64,36.88 8.14,8.51 18.35,12.79 30.53,12.79 9.08,0 16.84,-2.39 23.24,-7.19 6.44,-4.8 11.52,-12.47 15.28,-23zm-81.28 -39.8l81.56 0c-1.08,-12.32 -4.23,-21.54 -9.36,-27.7 -7.85,-9.55 -18.1,-14.35 -30.66,-14.35 -11.39,0 -20.93,3.81 -28.7,11.43 -7.71,7.62 -11.99,17.83 -12.84,30.62z"/>
   <path id="2" class="fil7" d="M14105.13 20050.02l0 -146.47 22.3 0 0 22.43c5.69,-10.39 10.96,-17.26 15.8,-20.55 4.85,-3.34 10.16,-4.99 15.95,-4.99 8.37,0 16.89,2.64 25.54,7.86l-8.84 22.91c-6.02,-3.39 -12.04,-5.08 -18.06,-5.08 -5.41,0 -10.26,1.64 -14.54,4.89 -4.28,3.24 -7.34,7.76 -9.17,13.54 -2.78,8.8 -4.14,18.44 -4.14,28.93l0 76.53 -24.84 0z"/>
   <path id="3" class="fil7" d="M14295.07 19996.4l24.27 3.38c-2.68,16.7 -9.45,29.73 -20.41,39.19 -10.96,9.45 -24.46,14.15 -40.41,14.15 -19.99,0 -36.08,-6.53 -48.21,-19.61 -12.18,-13.08 -18.25,-31.8 -18.25,-56.16 0,-15.81 2.63,-29.59 7.85,-41.44 5.22,-11.81 13.17,-20.7 23.9,-26.58 10.68,-5.92 22.29,-8.89 34.9,-8.89 15.85,0 28.88,4 38.95,12.04 10.11,8.05 16.6,19.48 19.42,34.25l-23.99 3.67c-2.3,-9.83 -6.35,-17.22 -12.23,-22.2 -5.83,-4.94 -12.88,-7.44 -21.16,-7.44 -12.51,0 -22.67,4.47 -30.53,13.41 -7.81,8.98 -11.71,23.09 -11.71,42.47 0,19.66 3.76,33.92 11.29,42.81 7.57,8.89 17.4,13.35 29.49,13.35 9.78,0 17.92,-2.96 24.41,-8.93 6.54,-5.93 10.68,-15.1 12.42,-27.47z"/>
   <path id="4" class="fil7" d="M14436.18 20031.68c-9.22,7.85 -18.11,13.35 -26.62,16.6 -8.52,3.25 -17.64,4.84 -27.43,4.84 -16.08,0 -28.45,-3.9 -37.11,-11.75 -8.65,-7.81 -12.98,-17.83 -12.98,-30.01 0,-7.15 1.65,-13.69 4.89,-19.62 3.29,-5.93 7.57,-10.63 12.84,-14.2 5.32,-3.58 11.24,-6.31 17.88,-8.14 4.89,-1.27 12.27,-2.49 22.1,-3.72 20.04,-2.35 34.86,-5.22 44.31,-8.51 0.1,-3.39 0.14,-5.55 0.14,-6.44 0,-10.07 -2.35,-17.17 -7.05,-21.31 -6.35,-5.6 -15.81,-8.37 -28.32,-8.37 -11.71,0 -20.36,2.07 -25.92,6.16 -5.59,4.09 -9.68,11.33 -12.37,21.78l-24.27 -3.39c2.21,-10.4 5.84,-18.82 10.92,-25.21 5.08,-6.4 12.41,-11.29 22.01,-14.77 9.55,-3.44 20.7,-5.18 33.3,-5.18 12.51,0 22.72,1.46 30.57,4.42 7.81,2.97 13.6,6.64 17.27,11.11 3.67,4.46 6.25,10.11 7.76,16.93 0.8,4.23 1.22,11.85 1.22,22.81l0 32.93c0,23 0.52,37.53 1.55,43.69 0.99,6.17 3.06,12.05 6.07,17.69l-25.96 0c-2.5,-5.22 -4.1,-11.34 -4.8,-18.34zm-1.98 -55.04c-9.03,3.67 -22.57,6.78 -40.64,9.32 -10.25,1.45 -17.49,3.1 -21.73,4.93 -4.23,1.84 -7.48,4.52 -9.78,8 -2.31,3.53 -3.48,7.43 -3.48,11.76 0,6.54 2.49,12.04 7.52,16.42 5.04,4.37 12.38,6.58 22.02,6.58 9.55,0 18.06,-2.07 25.54,-6.25 7.43,-4.14 12.93,-9.84 16.41,-17.03 2.69,-5.6 4,-13.83 4,-24.7l0.14 -9.03z"/>
   <path id="5" class="fil7" d="M14551.37 20027.87l3.39 21.91c-6.96,1.46 -13.22,2.22 -18.68,2.22 -8.98,0 -15.94,-1.42 -20.93,-4.28 -4.94,-2.87 -8.42,-6.59 -10.44,-11.25 -2.02,-4.65 -3.01,-14.44 -3.01,-29.35l0 -84.38 -18.34 0 0 -19.19 18.34 0 0 -36.22 24.84 -14.91 0 51.13 24.83 0 0 19.19 -24.83 0 0 85.79c0,7.11 0.42,11.67 1.31,13.69 0.85,2.02 2.26,3.62 4.24,4.85 1.97,1.17 4.79,1.78 8.46,1.78 2.73,0 6.35,-0.33 10.82,-0.98z"/>
   <path id="6" class="fil7" d="M14566.56 19976.78c0,-27.04 7.53,-47.08 22.63,-60.11 12.56,-10.82 27.94,-16.23 46.05,-16.23 20.08,0 36.54,6.59 49.34,19.76 12.75,13.12 19.14,31.33 19.14,54.51 0,18.82 -2.82,33.59 -8.46,44.36 -5.65,10.77 -13.88,19.14 -24.7,25.12 -10.77,5.97 -22.58,8.93 -35.32,8.93 -20.51,0 -37.07,-6.53 -49.72,-19.66 -12.65,-13.12 -18.96,-32.03 -18.96,-56.68zm25.4 0.05c0,18.72 4.1,32.74 12.28,42 8.23,9.32 18.53,13.97 31,13.97 12.32,0 22.57,-4.65 30.81,-14.01 8.18,-9.36 12.27,-23.61 12.27,-42.76 0,-18.06 -4.14,-31.75 -12.37,-41.01 -8.23,-9.32 -18.48,-13.97 -30.71,-13.97 -12.47,0 -22.77,4.61 -31,13.87 -8.18,9.27 -12.28,23.24 -12.28,41.91z"/>
   <path id="7" class="fil7" d="M14732.55 20050.02l0 -146.47 22.3 0 0 22.43c5.69,-10.39 10.96,-17.26 15.8,-20.55 4.85,-3.34 10.16,-4.99 15.95,-4.99 8.37,0 16.89,2.64 25.54,7.86l-8.84 22.91c-6.02,-3.39 -12.04,-5.08 -18.06,-5.08 -5.41,0 -10.26,1.64 -14.54,4.89 -4.28,3.24 -7.34,7.76 -9.17,13.54 -2.78,8.8 -4.14,18.44 -4.14,28.93l0 76.53 -24.84 0z"/>
   <circle class="fil8 str5" cx="12856.94" cy="19944.7" r="118.79"/>
   <rect class="fil8 str5" x="13314.87" y="19836.42" width="226.91" height="226.91"/>
   <path class="fil2 str6" d="M13030.84 19943.83l220.31 0"/>
   <path class="fil2 str6" d="M13248.49 19944.49l-64.02 65.38"/>
   <path class="fil2 str6" d="M13248.66 19943.35l-63.42 -61.39"/>
  </g>
 </g>
</svg>
